<?xml version="1.0" encoding="UTF-8"?>
<svg xmlns="http://www.w3.org/2000/svg" xmlns:xlink="http://www.w3.org/1999/xlink" width="0" height="0">
<defs>
<symbol viewBox="0 0 41 42" fill="none" id="arrowDisabled">
<ellipse cx="20.5" cy="21" rx="20.5" ry="20.5" transform="rotate(-180 20.5 21)" fill="#F8F2FF"></ellipse>
<path d="M16.0785 30.2451L25.7256 20.598L16.0785 10.951" stroke="white"></path>
</symbol>
<symbol viewBox="0 0 41 42" fill="none" id="arrowRight">
<ellipse cx="20.5" cy="21" rx="20.5" ry="20.5" transform="rotate(-180 20.5 21)" fill="#8936FF"></ellipse>
<path d="M16.0785 30.2451L25.7256 20.598L16.0785 10.951" stroke="white"></path>
</symbol>
<symbol viewBox="0 0 27 26" fill="none" id="basket">
<path d="M22.4184 7H19.4851C19.0803 7 18.7517 7.33113 18.7517 7.73913C18.7517 8.14713 19.0803 8.47826 19.4851 8.47826H22.4184C22.8225 8.47826 23.1517 8.81013 23.1517 9.21739V10.6957C23.1517 11.1029 22.8225 11.4348 22.4184 11.4348H4.81841C4.41434 11.4348 4.08507 11.1029 4.08507 10.6957V9.21739C4.08507 8.81013 4.41434 8.47826 4.81841 8.47826H7.75174C8.15654 8.47826 8.48507 8.14713 8.48507 7.73913C8.48507 7.33113 8.15654 7 7.75174 7H4.81841C3.60547 7 2.61841 7.99487 2.61841 9.21739V10.6957C2.61841 11.6861 3.27034 12.5169 4.16134 12.8007L5.36401 21.8927C5.52021 23.0746 6.56887 24 7.75174 24H19.4851C20.6679 24 21.7166 23.0746 21.8721 21.8935L23.0747 12.8007C23.9665 12.5169 24.6184 11.6861 24.6184 10.6957V9.21739C24.6184 7.99487 23.6313 7 22.4184 7ZM20.4186 21.6983C20.3607 22.1367 19.9243 22.5217 19.4851 22.5217H7.75174C7.31248 22.5217 6.87614 22.1367 6.81821 21.6976L5.65587 12.913H21.5809L20.4186 21.6983Z" fill="white"></path>
<path d="M9.06713 10.9468C9.15427 10.9827 9.24427 11 9.33284 11C9.61642 11 9.88427 10.8215 9.99642 10.5283L12.8536 3.02849C13 2.64376 12.8221 2.20727 12.4557 2.05352C12.0871 1.90053 11.6736 2.08652 11.5271 2.47126L8.66999 9.97103C8.52284 10.3565 8.70142 10.7923 9.06713 10.9468ZM17.2407 10.529C17.3528 10.8215 17.6214 11 17.9043 11C17.9928 11 18.0821 10.9827 18.1693 10.946C18.5357 10.7915 18.7136 10.3558 18.5671 9.97103L15.71 2.47126C15.5636 2.08727 15.1486 1.90203 14.7814 2.05352C14.415 2.20802 14.2371 2.64376 14.3836 3.02849L17.2407 10.529Z" fill="white"></path>
</symbol>
<symbol viewBox="0 0 40 42" fill="none" id="cartPurple">
<path d="M36 9.40332H30.6667C29.9307 9.40332 29.3333 10.0261 29.3333 10.7934C29.3333 11.5608 29.9307 12.1835 30.6667 12.1835H36C36.7347 12.1835 37.3333 12.8077 37.3333 13.5736V16.3538C37.3333 17.1198 36.7347 17.7439 36 17.7439H4C3.26533 17.7439 2.66667 17.1198 2.66667 16.3538V13.5736C2.66667 12.8077 3.26533 12.1835 4 12.1835H9.33333C10.0693 12.1835 10.6667 11.5608 10.6667 10.7934C10.6667 10.0261 10.0693 9.40332 9.33333 9.40332H4C1.79467 9.40332 0 11.2744 0 13.5736V16.3538C0 18.2165 1.18533 19.779 2.80533 20.3128L4.992 37.4124C5.276 39.6352 7.18267 41.3756 9.33333 41.3756H30.6667C32.8173 41.3756 34.724 39.6352 35.0067 37.4138L37.1933 20.3128C38.8147 19.779 40 18.2165 40 16.3538V13.5736C40 11.2744 38.2053 9.40332 36 9.40332ZM32.364 37.0468C32.2587 37.8711 31.4653 38.5954 30.6667 38.5954H9.33333C8.53467 38.5954 7.74133 37.8711 7.636 37.0454L5.52267 20.5241H34.4773L32.364 37.0468Z" fill="#8936FF"></path>
<path d="M11.725 16.8263C11.8835 16.894 12.0471 16.9265 12.2082 16.9265C12.7237 16.9265 13.2108 16.5908 13.4146 16.0393L18.6095 1.93431C18.8757 1.21073 18.5523 0.389817 17.8861 0.100665C17.216 -0.187077 16.464 0.162727 16.1978 0.886311L11.003 14.9913C10.7354 15.7163 11.0601 16.5358 11.725 16.8263ZM26.5861 16.0407C26.79 16.5908 27.2783 16.9265 27.7926 16.9265C27.9536 16.9265 28.116 16.894 28.2744 16.8249C28.9406 16.5344 29.264 15.7149 28.9978 14.9913L23.803 0.886311C23.5367 0.164137 22.7822 -0.184256 22.1147 0.100665C21.4484 0.391227 21.125 1.21073 21.3913 1.93431L26.5861 16.0407Z" fill="#8936FF"></path>
</symbol>
<symbol viewBox="0 0 30 30" fill="none" id="catIcon">
<path d="M27.6037 13.7212C28.5047 8.50274 28.6644 0.814053 27.6037 0.114145C26.5429 -0.584904 19.1379 2.01573 17.5896 5.4861C16.7449 5.25709 14.9958 5.14387 14.9958 5.14387C14.9958 5.14387 13.3029 5.25709 12.459 5.4861C10.9108 2.01573 3.44777 -0.584904 2.38786 0.114145C1.32712 0.814053 1.48514 8.50274 2.38786 13.7212C2.38786 13.7212 1.57507 15.4186 1.57507 21.3978L15.0235 17.9952V17.2773L28.4719 21.4261C28.4719 15.4186 27.6037 13.7212 27.6037 13.7212Z" fill="#FFCB4E"></path>
<path d="M19.9935 15.6785C18.241 15.6785 16.402 16.0876 15.0235 16.7772C13.6459 16.0876 11.8068 15.6785 10.0543 15.6785C1.7062 15.6785 1.57507 20.0529 1.57507 21.3944C1.57507 22.7316 3.22839 30 14.9958 30C26.7631 30 28.4719 22.7599 28.4719 21.4227C28.4719 20.0812 28.3408 15.6785 19.9935 15.6785Z" fill="#FFD882"></path>
<path d="M19.5396 6.04791C21.3635 4.00394 25.1551 2.46947 25.9335 2.66417C26.5655 2.81942 26.4672 8.14163 25.9604 11.1874C23.8061 7.54207 19.5396 6.04791 19.5396 6.04791ZM10.5073 6.04791C8.68501 4.00394 4.89256 2.46947 4.11507 2.66417C3.48131 2.81942 3.57966 8.14163 4.08817 11.1874C6.24244 7.54207 10.5073 6.04791 10.5073 6.04791Z" fill="#F28F20"></path>
<path d="M18.3916 16.2943C18.3916 12.269 16.871 5.14387 14.9958 5.14387C13.1206 5.14387 11.6001 12.269 11.6001 16.2943C11.6001 20.3214 13.1206 18.0098 14.9958 18.0098C16.871 18.0098 18.3916 20.3214 18.3916 16.2943Z" fill="#FAAA35"></path>
<path d="M12.491 13.7203C12.491 14.6681 11.7311 15.4358 10.7931 15.4358C10.3452 15.4378 9.91477 15.2583 9.59654 14.9366C9.27831 14.6149 9.09829 14.1774 9.09607 13.7203C9.09607 12.7734 9.85591 12.0066 10.7931 12.0066C11.7311 12.0066 12.491 12.7734 12.491 13.7203ZM20.913 13.7212C20.913 14.6689 20.1532 15.4366 19.2152 15.4366C18.7672 15.4387 18.3368 15.2591 18.0186 14.9374C17.7004 14.6157 17.5204 14.1782 17.5181 13.7212C17.5181 12.7742 18.278 12.0074 19.2152 12.0074C20.1532 12.0074 20.913 12.7742 20.913 13.7212Z" fill="#2A2F33"></path>
<path d="M15.0125 23.9067C14.7896 23.9067 14.5758 23.8163 14.4182 23.6555C14.2606 23.4946 14.172 23.2764 14.172 23.049V20.583C14.172 20.3555 14.2606 20.1373 14.4182 19.9765C14.5758 19.8156 14.7896 19.7253 15.0125 19.7253C15.2354 19.7253 15.4492 19.8156 15.6069 19.9765C15.7645 20.1373 15.853 20.3555 15.853 20.583V23.049C15.853 23.2764 15.7645 23.4946 15.6069 23.6555C15.4492 23.8163 15.2354 23.9067 15.0125 23.9067Z" fill="#F28F20"></path>
<path d="M18.4167 25.7997C15.0529 25.7997 14.2502 23.4315 14.2132 23.3157C14.1787 23.2087 14.1653 23.0957 14.1737 22.9834C14.1821 22.871 14.2121 22.7614 14.2621 22.6609C14.3121 22.5604 14.381 22.471 14.4649 22.3978C14.5489 22.3245 14.6461 22.2689 14.7512 22.2341C14.9608 22.1635 15.1892 22.1801 15.3868 22.2803C15.5845 22.3805 15.7354 22.5562 15.8069 22.7693C15.843 22.8688 16.5432 24.6023 19.8733 23.923C19.9817 23.9003 20.0933 23.8997 20.2019 23.9213C20.3104 23.943 20.4137 23.9863 20.5057 24.049C20.5977 24.1116 20.6766 24.1922 20.7379 24.2862C20.7992 24.3801 20.8416 24.4855 20.8626 24.5963C20.8843 24.7067 20.8845 24.8204 20.8631 24.9308C20.8417 25.0413 20.7992 25.1463 20.738 25.24C20.6768 25.3337 20.5981 25.4141 20.5064 25.4768C20.4147 25.5394 20.3119 25.583 20.2037 25.605C19.6158 25.7302 19.0172 25.7955 18.4167 25.7997Z" fill="#F28F20"></path>
<path d="M11.5748 25.7997C11.0436 25.7997 10.4511 25.7414 9.78704 25.605C9.67885 25.583 9.57597 25.5394 9.48429 25.4768C9.39261 25.4141 9.31392 25.3337 9.25272 25.24C9.19152 25.1463 9.14901 25.0413 9.12762 24.9308C9.10624 24.8204 9.10639 24.7067 9.12807 24.5963C9.14904 24.4855 9.19138 24.38 9.25262 24.286C9.31386 24.192 9.39279 24.1113 9.48482 24.0487C9.57685 23.986 9.68016 23.9427 9.78874 23.9211C9.89733 23.8995 10.009 23.9002 10.1174 23.923C13.4812 24.6075 14.1922 22.8337 14.2208 22.7573C14.3 22.5468 14.4565 22.376 14.6571 22.2814C14.8577 22.1867 15.0865 22.1756 15.295 22.2504C15.5014 22.325 15.6709 22.4794 15.7668 22.6803C15.8627 22.8811 15.8774 23.1125 15.8077 23.3243C15.7691 23.441 14.9386 25.7997 11.5748 25.7997Z" fill="#F28F20"></path>
<path d="M18.3747 17.6598C18.3747 19.1677 15.6715 21.0728 14.9958 21.0728C14.3216 21.0728 11.6177 19.1677 11.6177 17.6598C11.6177 16.1502 13.5038 16.2943 14.9958 16.2943C16.4885 16.2943 18.3747 16.1502 18.3747 17.6598Z" fill="#292F33"></path>
<path d="M28.4627 26.5313C28.3433 26.5314 28.2252 26.5055 28.1164 26.4554C28.0075 26.4052 27.9104 26.332 27.8315 26.2406C27.8062 26.2106 25.1577 23.2368 19.0816 22.2744C18.971 22.2589 18.8646 22.221 18.7686 22.1631C18.6725 22.1051 18.5887 22.0282 18.5221 21.9369C18.4555 21.8455 18.4073 21.7415 18.3805 21.631C18.3537 21.5205 18.3487 21.4056 18.3658 21.2931C18.3829 21.1805 18.4218 21.0726 18.4803 20.9756C18.5387 20.8786 18.6155 20.7944 18.7061 20.728C18.7968 20.6616 18.8995 20.6143 19.0083 20.5888C19.117 20.5633 19.2297 20.5602 19.3396 20.5796C19.6409 20.6269 19.9413 20.6801 20.2407 20.7391C26.3278 21.9433 28.9813 24.9763 29.0964 25.1101C29.2021 25.2343 29.2705 25.3869 29.2936 25.5497C29.3167 25.7125 29.2935 25.8786 29.2267 26.0284C29.16 26.1781 29.0525 26.3051 28.917 26.3942C28.7816 26.4834 28.6239 26.531 28.4627 26.5313Z" fill="#F39120"></path>
<path d="M19.2103 22.2839C19.0136 22.2828 18.8235 22.2115 18.673 22.0823C18.5225 21.9531 18.4211 21.7742 18.3864 21.5766C18.3517 21.379 18.386 21.1753 18.4832 21.0009C18.5805 20.8264 18.7345 20.6922 18.9186 20.6216C23.5222 18.8855 29.1403 20.4595 29.384 20.5281C29.5989 20.5889 29.7813 20.7344 29.8911 20.9325C30.0009 21.1306 30.0291 21.3651 29.9694 21.5844C29.9098 21.8037 29.7672 21.9898 29.5731 22.1019C29.379 22.2139 29.1492 22.2426 28.9343 22.1818C28.8805 22.1664 23.5903 20.6902 19.5019 22.2307C19.4085 22.2657 19.3098 22.2837 19.2103 22.2839ZM1.53737 26.5313C1.65679 26.5314 1.77485 26.5055 1.8837 26.4554C1.99254 26.4052 2.08967 26.332 2.16861 26.2406C2.19382 26.2106 4.84232 23.2368 10.9185 22.2744C11.029 22.2589 11.1354 22.221 11.2315 22.1631C11.3275 22.1051 11.4113 22.0282 11.478 21.9369C11.5446 21.8455 11.5927 21.7415 11.6196 21.631C11.6464 21.5205 11.6514 21.4056 11.6343 21.2931C11.6171 21.1805 11.5782 21.0726 11.5198 20.9756C11.4613 20.8786 11.3846 20.7944 11.2939 20.728C11.2033 20.6616 11.1006 20.6143 10.9918 20.5888C10.883 20.5633 10.7704 20.5602 10.6604 20.5796C10.3591 20.6269 10.0587 20.6801 9.7594 20.7391C3.67231 21.9433 1.01877 24.9763 0.903613 25.1101C0.797977 25.2343 0.729539 25.3869 0.706439 25.5497C0.683339 25.7125 0.70655 25.8786 0.773312 26.0284C0.840073 26.1781 0.947574 26.3051 1.08303 26.3942C1.21848 26.4834 1.37618 26.531 1.53737 26.5313Z" fill="#F39120"></path>
<path d="M10.7898 22.2839C10.9865 22.2828 11.1766 22.2115 11.3271 22.0823C11.4776 21.9531 11.579 21.7742 11.6136 21.5766C11.6483 21.379 11.6141 21.1753 11.5168 21.0009C11.4196 20.8264 11.2655 20.6922 11.0814 20.6216C6.47788 18.8855 0.859798 20.4595 0.616046 20.5281C0.401149 20.5889 0.218743 20.7344 0.108954 20.9325C-0.000834479 21.1306 -0.0290125 21.3651 0.030619 21.5844C0.0902505 21.8037 0.232807 21.9898 0.426927 22.1019C0.621048 22.2139 0.850831 22.2426 1.06573 22.1818C1.11952 22.1664 6.40979 20.6902 10.4981 22.2307C10.5915 22.2657 10.6903 22.2837 10.7898 22.2839Z" fill="#F39120"></path>
</symbol>
<symbol viewBox="0 0 31 31" fill="none" id="checkmark">
<circle cx="15.7048" cy="16" r="15" fill="#8936FF"></circle>
<path d="M6.85229 16.8125L15.9152 24C15.9152 24 20.6984 6.75 24.8523 1" stroke="white" stroke-width="3"></path>
</symbol>
<symbol viewBox="0 0 14 14" fill="none" id="closeMini">
<path d="M1 13L7 7M13 1L7 7M7 7L1 1L13 13" stroke="#8936FF" stroke-width="1.2"></path>
</symbol>
<symbol viewBox="0 0 47 47" fill="none" id="closePurple">
<path d="M14 33L24 23M34 13L24 23M24 23L34 33L14 13" stroke="#8936FF"></path>
<circle cx="23.5" cy="23.5" r="23" stroke="#8936FF"></circle>
</symbol>
<symbol viewBox="0 0 17 21" fill="none" id="delete">
<path d="M11.018 17.724C11.018 17.976 10.8458 18.144 10.5876 18.144C10.3724 18.144 10.1572 17.976 10.1572 17.724V7.728C10.1572 7.476 10.3294 7.308 10.5876 7.308C10.8458 7.308 11.018 7.476 11.018 7.728V17.724Z" fill="#BBBBBB"></path>
<path d="M6.84331 17.724C6.84331 17.976 6.67116 18.144 6.41294 18.144C6.15471 18.144 5.98256 17.976 5.98256 17.724V7.728C5.98256 7.476 6.15471 7.308 6.41294 7.308C6.67116 7.308 6.84331 7.476 6.84331 7.728V17.724Z" fill="#BBBBBB"></path>
<path fill-rule="evenodd" clip-rule="evenodd" d="M13.6 21H3.44304C2.28101 21 1.33418 20.076 1.33418 18.984V5.334H0.43038C0.172152 5.334 0 5.166 0 4.914V3.948C0 3.108 0.688608 2.394 1.59241 2.394H5.25063V1.302C5.25063 0.588 5.85316 0 6.58481 0H10.4152C11.1468 0 11.7494 0.588 11.7494 1.302V2.394H15.4076C16.2684 2.394 17 3.066 17 3.948V4.914C17 5.166 16.8278 5.334 16.5696 5.334H15.6658V18.984C15.6658 20.076 14.762 21 13.6 21ZM13.6 20.16C14.2456 20.16 14.8051 19.656 14.8051 18.984H14.8481V5.334H2.23797V18.984C2.23797 19.614 2.75443 20.16 3.44304 20.16H13.6ZM6.58481 0.84C6.32658 0.84 6.11139 1.05 6.11139 1.302H6.15443V2.394H10.8886V1.302C10.8886 1.05 10.6734 0.84 10.4152 0.84H6.58481ZM1.59241 3.234C1.20506 3.234 0.860759 3.528 0.860759 3.948V4.494H16.0962V3.948C16.0962 3.57 15.7949 3.234 15.3646 3.234H1.59241Z" fill="#BBBBBB"></path>
</symbol>
<symbol viewBox="0 0 30 30" fill="none" id="dogIcon">
<path d="M12.5 25V27.5C12.5 27.5 12.5 30 15 30C17.5 30 17.5 27.5 17.5 27.5V25H12.5Z" fill="#DD2E44"></path>
<path d="M11.6667 1.66667C11.7008 -0.833332 0 0 0 8.33333C0 11.6667 0 20 2.5 20C5.83333 20 11.6208 5 11.6667 1.66667ZM18.3333 1.66667C18.2992 -0.833332 30 0 30 8.33333C30 11.6667 30 20 27.5 20C24.1667 20 18.3792 5 18.3333 1.66667Z" fill="#9F6451"></path>
<path d="M25.8334 18.3333C25.8334 24.1667 22.5001 24.1667 22.5001 24.1667H7.50008C7.50008 24.1667 4.16675 24.1667 4.16675 18.3333C4.16675 18.3333 5.00008 -1.90735e-06 15.0001 -1.90735e-06C25.0001 -1.90735e-06 25.8334 18.3333 25.8334 18.3333Z" fill="#FFD5C7"></path>
<path d="M19.1666 18.3542V18.3333H10.8332V18.3542C10.0665 18.4236 9.32951 18.6851 8.69047 19.1145C8.05142 19.5439 7.53087 20.1274 7.17688 20.8111C6.82289 21.4948 6.64688 22.2567 6.6651 23.0264C6.68332 23.7962 6.89518 24.5489 7.28112 25.2151C7.66706 25.8813 8.21464 26.4395 8.87329 26.8382C9.53194 27.2369 10.2804 27.4632 11.0496 27.4963C11.8189 27.5293 12.584 27.368 13.2744 27.0273C13.9648 26.6865 14.5583 26.1773 14.9999 25.5467C15.4217 26.1499 15.9829 26.6425 16.6357 26.9825C17.2886 27.3226 18.0138 27.5001 18.7499 27.5C19.926 27.495 21.0552 27.0381 21.9038 26.2238C22.7524 25.4095 23.2556 24.3002 23.3091 23.1253C23.3626 21.9504 22.9624 20.7999 22.1914 19.9118C21.4203 19.0237 20.3374 18.4661 19.1666 18.3542Z" fill="#C18C7A"></path>
<path d="M9.16675 13.3333C9.16675 13.3333 9.16675 11.6667 10.8334 11.6667C12.5001 11.6667 12.5001 13.3333 12.5001 13.3333V15C12.5001 15 12.5001 16.6667 10.8334 16.6667C9.16675 16.6667 9.16675 15 9.16675 15V13.3333ZM17.5001 13.3333C17.5001 13.3333 17.5001 11.6667 19.1667 11.6667C20.8334 11.6667 20.8334 13.3333 20.8334 13.3333V15C20.8334 15 20.8334 16.6667 19.1667 16.6667C17.5001 16.6667 17.5001 15 17.5001 15V13.3333ZM12.5001 20C11.6667 20.8333 14.1667 23.3333 15.0001 23.3333C15.8334 23.3333 18.3334 20.8333 17.5001 20C16.6667 19.1667 13.3334 19.1667 12.5001 20Z" fill="#272B2B"></path>
</symbol>
<symbol viewBox="0 0 11 20" fill="none" id="facebook">
<path d="M8.51 3.32003H10.39V0.14003C9.47975 0.045377 8.56516 -0.00135428 7.65 2.98641e-05C4.93 2.98641e-05 3.07 1.66003 3.07 4.70003V7.32003H0V10.88H3.07V20H6.75V10.88H9.81L10.27 7.32003H6.75V5.05003C6.75 4.00003 7.03 3.32003 8.51 3.32003Z" fill="#F1F1F1"></path>
</symbol>
<symbol viewBox="0 0 40 40" fill="none" id="facebookColor">
<path d="M40 20C40 8.9543 31.0457 0 20 0C8.95431 0 0 8.9543 0 20C0 29.9826 7.31371 38.2566 16.875 39.7569V25.7813H11.7969V20H16.875V15.5938C16.875 10.5812 19.8609 7.8125 24.4293 7.8125C26.6175 7.8125 28.9062 8.20313 28.9062 8.20313V13.125H26.3843C23.8998 13.125 23.125 14.6667 23.125 16.2483V20H28.6719L27.7852 25.7813H23.125V39.7569C32.6863 38.2566 40 29.9826 40 20Z" fill="#1877F2"></path>
<path d="M27.7852 25.7812L28.6719 20H23.125V16.2483C23.125 14.6667 23.8998 13.125 26.3843 13.125H28.9062V8.20312C28.9062 8.20312 26.6175 7.8125 24.4293 7.8125C19.8609 7.8125 16.875 10.5812 16.875 15.5938V20H11.7969V25.7812H16.875V39.7569C18.9457 40.081 21.0543 40.081 23.125 39.7569V25.7812H27.7852Z" fill="#F5F5F5"></path>
</symbol>
<symbol viewBox="0 0 11 20" fill="none" id="facebookColorMini">
<path d="M8.51 3.32003H10.39V0.14003C9.47975 0.045377 8.56516 -0.00135428 7.65 2.98641e-05C4.93 2.98641e-05 3.07 1.66003 3.07 4.70003V7.32003H0V10.88H3.07V20H6.75V10.88H9.81L10.27 7.32003H6.75V5.05003C6.75 4.00003 7.03 3.32003 8.51 3.32003Z" fill="#3656FF"></path>
</symbol>
<symbol viewBox="0 0 8 5" fill="none" id="filterArrowTop">
<path d="M1 1L4 4L7 1" stroke="black"></path>
</symbol>
<symbol viewBox="0 0 20 20" fill="none" id="gallery">
<path d="M17 0H3C1.34387 0.0018311 0.0018311 1.34387 0 3V12.0684V17C0.0018311 18.6561 1.34387 19.9982 3 20H17C17.1823 19.9998 17.3621 19.978 17.5396 19.9451C17.6057 19.933 17.6687 19.9147 17.7332 19.8984C17.8392 19.8713 17.9433 19.8397 18.0457 19.8011C18.1202 19.7733 18.1929 19.744 18.2644 19.7105C18.3484 19.671 18.4286 19.6251 18.5089 19.5778C18.584 19.5336 18.66 19.4921 18.7308 19.4418C18.7366 19.4376 18.7432 19.4349 18.749 19.4307C18.7565 19.4253 18.7629 19.4186 18.77 19.4128C18.7837 19.4018 18.8008 19.3964 18.8134 19.3839C18.82 19.3772 18.8221 19.3683 18.8282 19.3614C19.5355 18.8126 19.999 17.9643 20 17V14.0703V3C19.9982 1.34387 18.6561 0.0018311 17 0ZM17.575 18.9054C17.3884 18.9632 17.1955 18.9999 17 19H3C1.896 18.9986 1.0014 18.104 1 17V12.2754L4.7627 8.5127C5.44672 7.83105 6.55328 7.83105 7.2373 8.5127L10.6422 11.9172C10.644 11.9192 10.6445 11.9218 10.6465 11.9238L17.6155 18.8928C17.6021 18.8972 17.5885 18.9012 17.575 18.9054ZM19 17C18.9993 17.5163 18.798 17.9822 18.4766 18.337L11.7081 11.5692L12.7637 10.5137C13.4549 9.85156 14.5451 9.85156 15.2363 10.5137L19 14.2773V17ZM19 12.8633L15.9434 9.80664C14.8696 8.73438 13.1304 8.73438 12.0566 9.80664L11.0011 10.8622L7.94434 7.80566C6.86987 6.7334 5.13013 6.7334 4.05566 7.80566L1 10.8613V3C1.0014 1.896 1.896 1.0014 3 1H17C18.104 1.0014 18.9986 1.896 19 3V12.8633ZM11.5 4C10.6716 4 10 4.67157 10 5.5C10 6.32843 10.6716 7 11.5 7C12.3281 6.99908 12.9991 6.32806 13 5.5C13 4.67157 12.3284 4 11.5 4ZM11.5 6C11.2239 6 11 5.77612 11 5.5C11 5.22388 11.2239 5 11.5 5C11.7759 5.00055 11.9995 5.22406 12 5.5C12 5.77612 11.7761 6 11.5 6Z" fill="#8936FF"></path>
</symbol>
<symbol viewBox="0 0 39 40" fill="none" id="google">
<path d="M38.86 20.3714C38.86 18.7463 38.7281 17.5604 38.4427 16.3306H19.8855V23.6655H30.7782C30.5586 25.4884 29.3727 28.2335 26.7373 30.0782L26.7004 30.3237L32.5678 34.8692L32.9744 34.9097C36.7077 31.4618 38.86 26.3887 38.86 20.3714Z" fill="#4285F4"></path>
<path d="M19.8861 39.6973C25.2226 39.6973 29.7026 37.9403 32.9749 34.9097L26.7379 30.0782C25.0689 31.2421 22.8288 32.0547 19.8861 32.0547C14.6594 32.0547 10.2232 28.6069 8.64188 23.8413L8.41009 23.861L2.30903 28.5827L2.22925 28.8045C5.47947 35.261 12.1557 39.6973 19.8861 39.6973Z" fill="#34A853"></path>
<path d="M8.64171 23.841C8.22445 22.6112 7.98297 21.2934 7.98297 19.9319C7.98297 18.5702 8.22445 17.2526 8.61975 16.0228L8.6087 15.7609L2.43119 10.9634L2.22907 11.0595C0.8895 13.7388 0.12085 16.7476 0.12085 19.9319C0.12085 23.1163 0.8895 26.1249 2.22907 28.8042L8.64171 23.841Z" fill="#FBBC05"></path>
<path d="M19.8861 7.80943C23.5975 7.80943 26.101 9.41259 27.5285 10.7523L33.1067 5.30591C29.6808 2.12155 25.2226 0.166992 19.8861 0.166992C12.1557 0.166992 5.47947 4.60312 2.22925 11.0597L8.61993 16.023C10.2232 11.2574 14.6594 7.80943 19.8861 7.80943Z" fill="#EB4335"></path>
</symbol>
<symbol viewBox="0 0 20 20" fill="none" id="insta">
<path d="M15.34 3.46C15.1027 3.46 14.8707 3.53038 14.6733 3.66224C14.476 3.79409 14.3222 3.98151 14.2313 4.20078C14.1405 4.42005 14.1168 4.66133 14.1631 4.89411C14.2094 5.12689 14.3236 5.34071 14.4915 5.50853C14.6593 5.67635 14.8731 5.79064 15.1059 5.83694C15.3387 5.88324 15.5799 5.85948 15.7992 5.76866C16.0185 5.67783 16.2059 5.52402 16.3378 5.32668C16.4696 5.12935 16.54 4.89734 16.54 4.66C16.54 4.34174 16.4136 4.03652 16.1885 3.81147C15.9635 3.58643 15.6583 3.46 15.34 3.46ZM19.94 5.88C19.9206 5.0503 19.7652 4.2294 19.48 3.45C19.2257 2.78313 18.83 2.17928 18.32 1.68C17.8248 1.16743 17.2196 0.774176 16.55 0.53C15.7727 0.236161 14.9508 0.07721 14.12 0.0599999C13.06 -5.58794e-08 12.72 0 10 0C7.28 0 6.94 -5.58794e-08 5.88 0.0599999C5.04915 0.07721 4.22734 0.236161 3.45 0.53C2.78168 0.776649 2.17693 1.16956 1.68 1.68C1.16743 2.17518 0.774176 2.78044 0.53 3.45C0.236161 4.22734 0.07721 5.04915 0.0599999 5.88C-5.58794e-08 6.94 0 7.28 0 10C0 12.72 -5.58794e-08 13.06 0.0599999 14.12C0.07721 14.9508 0.236161 15.7727 0.53 16.55C0.774176 17.2196 1.16743 17.8248 1.68 18.32C2.17693 18.8304 2.78168 19.2234 3.45 19.47C4.22734 19.7638 5.04915 19.9228 5.88 19.94C6.94 20 7.28 20 10 20C12.72 20 13.06 20 14.12 19.94C14.9508 19.9228 15.7727 19.7638 16.55 19.47C17.2196 19.2258 17.8248 18.8326 18.32 18.32C18.8322 17.8226 19.2283 17.2182 19.48 16.55C19.7652 15.7706 19.9206 14.9497 19.94 14.12C19.94 13.06 20 12.72 20 10C20 7.28 20 6.94 19.94 5.88ZM18.14 14C18.1327 14.6348 18.0178 15.2637 17.8 15.86C17.6403 16.2952 17.3839 16.6884 17.05 17.01C16.7256 17.3405 16.3332 17.5964 15.9 17.76C15.3037 17.9778 14.6748 18.0927 14.04 18.1C13.04 18.15 12.67 18.16 10.04 18.16C7.41 18.16 7.04 18.16 6.04 18.1C5.38089 18.1123 4.72459 18.0109 4.1 17.8C3.68578 17.6281 3.31136 17.3728 3 17.05C2.66809 16.7287 2.41484 16.3352 2.26 15.9C2.01586 15.2952 1.88044 14.6519 1.86 14C1.86 13 1.8 12.63 1.8 10C1.8 7.37 1.8 7 1.86 6C1.86448 5.35106 1.98295 4.70795 2.21 4.1C2.38605 3.67791 2.65627 3.30166 3 3C3.30381 2.65617 3.67929 2.3831 4.1 2.2C4.70955 1.98004 5.352 1.86508 6 1.86C7 1.86 7.37 1.8 10 1.8C12.63 1.8 13 1.8 14 1.86C14.6348 1.86728 15.2637 1.98225 15.86 2.2C16.3144 2.36865 16.7223 2.64285 17.05 3C17.3777 3.30718 17.6338 3.68273 17.8 4.1C18.0223 4.70893 18.1373 5.35178 18.14 6C18.19 7 18.2 7.37 18.2 10C18.2 12.63 18.19 13 18.14 14ZM10 4.87C8.98581 4.87198 7.99496 5.17453 7.15265 5.73942C6.31035 6.30431 5.65438 7.1062 5.26763 8.04375C4.88089 8.98131 4.78072 10.0125 4.97979 11.0069C5.17886 12.0014 5.66824 12.9145 6.38608 13.631C7.10392 14.3474 8.01801 14.835 9.01286 15.0321C10.0077 15.2293 11.0387 15.1271 11.9755 14.7385C12.9123 14.35 13.7129 13.6924 14.2761 12.849C14.8394 12.0056 15.14 11.0142 15.14 10C15.1413 9.3251 15.0092 8.65661 14.7512 8.03296C14.4933 7.40931 14.1146 6.84281 13.6369 6.36605C13.1592 5.88929 12.5919 5.51168 11.9678 5.25493C11.3436 4.99818 10.6749 4.86736 10 4.87ZM10 13.33C9.34139 13.33 8.69757 13.1347 8.14995 12.7688C7.60234 12.4029 7.17552 11.8828 6.92348 11.2743C6.67144 10.6659 6.6055 9.99631 6.73398 9.35035C6.86247 8.70439 7.17963 8.11104 7.64533 7.64533C8.11104 7.17963 8.70439 6.86247 9.35035 6.73398C9.99631 6.6055 10.6659 6.67144 11.2743 6.92348C11.8828 7.17552 12.4029 7.60234 12.7688 8.14995C13.1347 8.69757 13.33 9.34139 13.33 10C13.33 10.4373 13.2439 10.8703 13.0765 11.2743C12.9092 11.6784 12.6639 12.0454 12.3547 12.3547C12.0454 12.6639 11.6784 12.9092 11.2743 13.0765C10.8703 13.2439 10.4373 13.33 10 13.33Z" fill="white"></path>
</symbol>
<symbol viewBox="0 0 59 59" fill="none" id="leftButtonArrow">
<circle cx="29.5" cy="29.5" r="29.5" fill="white"></circle>
<path d="M35 17L23 29L35 41" stroke="black"></path>
</symbol>
<symbol viewBox="0 0 10 18" fill="none" id="leftPurpleArrow">
<path d="M9.5 1L1.5 9L9.5 17" stroke="#8936FF"></path>
</symbol>
<symbol viewBox="0 0 37 43" fill="none" id="logo">
<path d="M7.0918 38.1745C3.89922 37.2507 3.7775 35.2359 3.75936 34.0692C6.01107 33.2372 10.8573 31.5284 12.2285 31.349C13.5997 31.1696 18.6291 32.5628 20.9724 33.2819L25.192 40.4955C24.6074 41.1135 23.0207 42.2786 21.3501 41.995C19.262 41.6405 18.0121 39.3918 15.622 38.6831C13.2318 37.9743 10.2844 39.0983 7.0918 38.1745Z" fill="black" fill-opacity="0.1"></path>
<path d="M11.93 12.2249C10.8679 10.6849 11.0888 8.60975 11.7625 7.34647C16.1586 5.6996 19.33 9.37417 19.1873 11.4075C19.0447 13.4408 16.7374 14.2966 15.4 14.2846C14.2632 14.2744 12.6944 13.3334 11.93 12.2249Z" fill="black" fill-opacity="0.1"></path>
<path d="M20.5196 13.7699C20.0463 12.3776 20.9185 10.9652 21.4138 10.4331C23.7836 10.8847 28.7179 11.9501 29.4963 12.5988C30.4694 13.4097 30.0739 14.8857 29.2192 16.101C28.3646 17.3163 26.3619 17.8801 24.2297 17.4463C22.0975 17.0126 21.1114 15.5104 20.5196 13.7699Z" fill="black" fill-opacity="0.1"></path>
<path d="M24.9363 24.2138C24.4801 22.0186 25.9099 20.58 26.5228 20.2416C28.0669 21.137 31.1765 22.946 31.2614 23.019C31.3675 23.1102 32.6666 26.7877 32.3897 27.0904C32.1128 27.3931 30.7163 28.4637 28.797 28.0751C26.8777 27.6865 25.3924 26.409 24.9363 24.2138Z" fill="black" fill-opacity="0.1"></path>
<path d="M3.18551 21.8131C-0.723976 21.5626 0.377629 18.9354 1.33724 17.3329C3.24751 16.14 7.42155 13.9686 8.83557 14.8257C10.6031 15.8971 10.571 17.7482 9.73509 19.3838C8.89915 21.0195 7.095 22.0637 3.18551 21.8131Z" fill="black" fill-opacity="0.1"></path>
<g filter="url(#filter0_i_2580_40)">
<path d="M35.1688 21.6293C35.3938 20.3189 34.1856 17.5281 33.2534 17.0042C32.0686 16.4811 29.6581 17.0002 28.2826 17.6596C26.9071 18.3191 25.6577 20.8626 26.0193 22.8098C26.3809 24.757 28.9311 28.6613 31.7313 27.6298C34.5314 26.5983 34.9439 22.9396 35.1688 21.6293Z" fill="black"></path>
</g>
<g filter="url(#filter1_i_2580_40)">
<path d="M1.2501 16.7228C1.87964 12.4669 4.98384 8.7459 5.95308 8.94148C7.26374 9.29267 9.09045 13.4372 9.14809 16.0818C9.20572 18.7263 6.77244 19.2285 6.0805 19.4279C5.38856 19.6272 0.620562 20.9787 1.2501 16.7228Z" fill="black"></path>
</g>
<g filter="url(#filter2_i_2580_40)">
<path d="M20.2413 8.95974C21.2007 7.17986 22.3779 3.81562 21.1286 2.56095C19.7521 1.00936 17.5884 2.13803 16.5237 2.50983C15.459 2.88163 12.3251 4.80165 11.5694 7.62176C10.8138 10.4419 13.0264 12.2175 15.1324 12.8475C17.2384 13.4775 19.2818 10.7396 20.2413 8.95974Z" fill="black"></path>
</g>
<g filter="url(#filter3_i_2580_40)">
<path d="M30.861 10.7732C31.1107 8.41936 29.5166 5.12553 27.0873 4.4746C25.4283 4.03007 21.2146 8.37959 21.6148 11.8631C22.015 15.3467 25.5037 15.8356 27.5157 15.6739C29.5277 15.5123 30.6113 13.1271 30.861 10.7732Z" fill="black"></path>
</g>
<g filter="url(#filter4_i_2580_40)">
<path d="M21.6297 41.3615C17.86 40.387 14.5942 34.4931 14.5942 34.4931C14.5942 34.4931 9.0235 37.6402 5.83411 36.773C2.64473 35.9059 0.958088 33.7218 1.9836 29.8946C3.00912 26.0673 5.50441 24.5331 9.54599 22.9201C13.5876 21.3071 17.857 20.0905 17.857 20.0905C17.857 20.0905 23.6129 26.5753 26.2087 29.9668C28.8046 33.3583 28.6338 35.7517 28.3129 36.9495C27.992 38.1472 25.3993 42.3359 21.6297 41.3615Z" fill="black"></path>
</g>
<defs>
<filter id="filter0_i_2580_40" x="25.9562" y="16.79" width="9.23999" height="11.0104" filterUnits="userSpaceOnUse" color-interpolation-filters="sRGB">
<feFlood flood-opacity="0" result="BackgroundImageFix"></feFlood>
<feBlend mode="normal" in="SourceGraphic" in2="BackgroundImageFix" result="shape"></feBlend>
<feColorMatrix in="SourceAlpha" type="matrix" values="0 0 0 0 0 0 0 0 0 0 0 0 0 0 0 0 0 0 127 0" result="hardAlpha"></feColorMatrix>
<feOffset dy="10"></feOffset>
<feComposite in2="hardAlpha" operator="arithmetic" k2="-1" k3="1"></feComposite>
<feColorMatrix type="matrix" values="0 0 0 0 0 0 0 0 0 0 0 0 0 0 0 0 0 0 0.05 0"></feColorMatrix>
<feBlend mode="normal" in2="shape" result="effect1_innerShadow_2580_40"></feBlend>
</filter>
<filter id="filter1_i_2580_40" x="1.19299" y="8.93408" width="7.95605" height="10.8541" filterUnits="userSpaceOnUse" color-interpolation-filters="sRGB">
<feFlood flood-opacity="0" result="BackgroundImageFix"></feFlood>
<feBlend mode="normal" in="SourceGraphic" in2="BackgroundImageFix" result="shape"></feBlend>
<feColorMatrix in="SourceAlpha" type="matrix" values="0 0 0 0 0 0 0 0 0 0 0 0 0 0 0 0 0 0 127 0" result="hardAlpha"></feColorMatrix>
<feOffset dy="10"></feOffset>
<feComposite in2="hardAlpha" operator="arithmetic" k2="-1" k3="1"></feComposite>
<feColorMatrix type="matrix" values="0 0 0 0 0 0 0 0 0 0 0 0 0 0 0 0 0 0 0.05 0"></feColorMatrix>
<feBlend mode="normal" in2="shape" result="effect1_innerShadow_2580_40"></feBlend>
</filter>
<filter id="filter2_i_2580_40" x="11.4181" y="1.76453" width="10.2516" height="11.1753" filterUnits="userSpaceOnUse" color-interpolation-filters="sRGB">
<feFlood flood-opacity="0" result="BackgroundImageFix"></feFlood>
<feBlend mode="normal" in="SourceGraphic" in2="BackgroundImageFix" result="shape"></feBlend>
<feColorMatrix in="SourceAlpha" type="matrix" values="0 0 0 0 0 0 0 0 0 0 0 0 0 0 0 0 0 0 127 0" result="hardAlpha"></feColorMatrix>
<feOffset dy="10"></feOffset>
<feComposite in2="hardAlpha" operator="arithmetic" k2="-1" k3="1"></feComposite>
<feColorMatrix type="matrix" values="0 0 0 0 0 0 0 0 0 0 0 0 0 0 0 0 0 0 0.05 0"></feColorMatrix>
<feBlend mode="normal" in2="shape" result="effect1_innerShadow_2580_40"></feBlend>
</filter>
<filter id="filter3_i_2580_40" x="21.5881" y="4.44312" width="9.29858" height="11.2576" filterUnits="userSpaceOnUse" color-interpolation-filters="sRGB">
<feFlood flood-opacity="0" result="BackgroundImageFix"></feFlood>
<feBlend mode="normal" in="SourceGraphic" in2="BackgroundImageFix" result="shape"></feBlend>
<feColorMatrix in="SourceAlpha" type="matrix" values="0 0 0 0 0 0 0 0 0 0 0 0 0 0 0 0 0 0 127 0" result="hardAlpha"></feColorMatrix>
<feOffset dy="10"></feOffset>
<feComposite in2="hardAlpha" operator="arithmetic" k2="-1" k3="1"></feComposite>
<feColorMatrix type="matrix" values="0 0 0 0 0 0 0 0 0 0 0 0 0 0 0 0 0 0 0.05 0"></feColorMatrix>
<feBlend mode="normal" in2="shape" result="effect1_innerShadow_2580_40"></feBlend>
</filter>
<filter id="filter4_i_2580_40" x="1.68408" y="20.0906" width="26.8065" height="21.4166" filterUnits="userSpaceOnUse" color-interpolation-filters="sRGB">
<feFlood flood-opacity="0" result="BackgroundImageFix"></feFlood>
<feBlend mode="normal" in="SourceGraphic" in2="BackgroundImageFix" result="shape"></feBlend>
<feColorMatrix in="SourceAlpha" type="matrix" values="0 0 0 0 0 0 0 0 0 0 0 0 0 0 0 0 0 0 127 0" result="hardAlpha"></feColorMatrix>
<feOffset dy="10"></feOffset>
<feComposite in2="hardAlpha" operator="arithmetic" k2="-1" k3="1"></feComposite>
<feColorMatrix type="matrix" values="0 0 0 0 0 0 0 0 0 0 0 0 0 0 0 0 0 0 0.05 0"></feColorMatrix>
<feBlend mode="normal" in2="shape" result="effect1_innerShadow_2580_40"></feBlend>
</filter>
</defs>
</symbol>
<symbol viewBox="0 0 54 64" fill="none" id="logoWhite">
<path d="M10.5393 56.5373C5.79472 55.1644 5.61384 52.1703 5.58688 50.4363C8.93317 49.1999 16.1352 46.6604 18.1729 46.3939C20.2107 46.1273 27.685 48.1977 31.1674 49.2663L37.4382 59.9866C36.5695 60.905 34.2113 62.6364 31.7287 62.215C28.6255 61.6882 26.7681 58.3464 23.216 57.2931C19.664 56.2397 15.2838 57.9101 10.5393 56.5373Z" fill="white" fill-opacity="0.1"></path>
<path d="M17.7293 17.9735C16.151 15.6848 16.4793 12.601 17.4804 10.7236C24.0135 8.27617 28.7265 13.737 28.5146 16.7587C28.3026 19.7804 24.8736 21.0523 22.8861 21.0345C21.1967 21.0193 18.8654 19.6209 17.7293 17.9735Z" fill="white" fill-opacity="0.1"></path>
<path d="M30.4946 20.2694C29.7911 18.2002 31.0873 16.1013 31.8234 15.3104C35.3452 15.9816 42.6782 17.5648 43.835 18.5289C45.281 19.7341 44.6933 21.9275 43.4232 23.7336C42.153 25.5397 39.1768 26.3776 36.0082 25.7329C32.8396 25.0883 31.374 22.8558 30.4946 20.2694Z" fill="white" fill-opacity="0.1"></path>
<path d="M37.058 35.7904C36.3802 32.5281 38.505 30.3902 39.4158 29.8874C41.7106 31.218 46.3318 33.9063 46.4579 34.0148C46.6156 34.1504 48.5462 39.6155 48.1347 40.0654C47.7231 40.5152 45.6478 42.1063 42.7955 41.5288C39.9432 40.9512 37.7359 39.0528 37.058 35.7904Z" fill="white" fill-opacity="0.1"></path>
<path d="M4.73409 32.2223C-1.07585 31.85 0.561257 27.9457 1.98735 25.5642C4.82622 23.7915 11.0293 20.5645 13.1307 21.8383C15.7574 23.4304 15.7098 26.1813 14.4675 28.6121C13.2252 31.0429 10.544 32.5946 4.73409 32.2223Z" fill="white" fill-opacity="0.1"></path>
<path d="M52.2648 31.9491C52.599 30.0018 50.8036 25.8543 49.4182 25.0757C47.6575 24.2984 44.0752 25.0698 42.0311 26.0498C39.9869 27.0297 38.1302 30.8097 38.6675 33.7035C39.2049 36.5973 42.9948 42.3995 47.1562 40.8666C51.3175 39.3336 51.9305 33.8964 52.2648 31.9491Z" fill="white"></path>
<path d="M1.85773 24.6579C2.79329 18.3331 7.40648 12.8032 8.84689 13.0939C10.7947 13.6158 13.5094 19.7751 13.595 23.7051C13.6807 27.6352 10.0645 28.3816 9.03625 28.6778C8.00794 28.9741 0.922169 30.9826 1.85773 24.6579Z" fill="white"></path>
<path d="M30.0809 13.1209C31.5067 10.4758 33.2561 5.47614 31.3996 3.61157C29.3539 1.30573 26.1385 2.98307 24.5562 3.5356C22.9739 4.08814 18.3165 6.9415 17.1936 11.1325C16.0706 15.3235 19.3588 17.9623 22.4886 18.8986C25.6183 19.8348 28.655 15.766 30.0809 13.1209Z" fill="white"></path>
<path d="M45.863 15.8159C46.2341 12.3178 43.8651 7.42276 40.2549 6.45541C37.7894 5.79479 31.5274 12.2587 32.1221 17.4356C32.7168 22.6126 37.9015 23.3391 40.8915 23.0989C43.8815 22.8587 45.492 19.314 45.863 15.8159Z" fill="white"></path>
<path d="M32.1441 61.2739C26.542 59.8257 21.6885 51.0667 21.6885 51.0667C21.6885 51.0667 13.4099 55.7436 8.67015 54.4549C3.93037 53.1663 1.42383 49.9205 2.94786 44.2327C4.47188 38.545 8.18017 36.265 14.1864 33.8679C20.1927 31.4709 26.5376 29.6629 26.5376 29.6629C26.5376 29.6629 35.0914 39.3 38.9491 44.3401C42.8068 49.3802 42.5531 52.9371 42.0761 54.7171C41.5992 56.4972 37.7462 62.722 32.1441 61.2739Z" fill="white"></path>
</symbol>
<symbol viewBox="0 0 38 24" fill="none" id="menu">
<path d="M0 1.51721H38" stroke="black" stroke-width="2"></path>
<path d="M0 12H38" stroke="black" stroke-width="2"></path>
<path d="M0 22.4828H38" stroke="black" stroke-width="2"></path>
</symbol>
<symbol viewBox="0 0 20 20" fill="none" id="phone">
<path opacity="0.5" d="M19.1652 13.7786L17.3794 11.9928C16.8471 11.4647 16.1285 11.167 15.3787 11.1638C14.6289 11.1606 13.9078 11.4522 13.371 11.9757C13.0846 12.2638 12.7067 12.443 12.3024 12.4826C11.8981 12.5221 11.4926 12.4196 11.1558 12.1925C9.82629 11.3052 8.68417 10.1653 7.79433 8.83749C7.57123 8.4969 7.47235 8.08981 7.51434 7.68482C7.55633 7.27983 7.73663 6.90169 8.02487 6.61411C8.54365 6.07679 8.83149 5.35774 8.82679 4.61086C8.82208 3.86398 8.52521 3.14861 7.9997 2.61786L6.21387 0.832012C5.67921 0.299185 4.95516 0 4.20034 0C3.44552 0 2.72146 0.299185 2.18681 0.832012L1.67297 1.34666C-1.00578 4.02544 -0.805278 9.65736 4.76815 15.2276C8.12877 18.5891 11.5113 19.9966 14.2542 19.9966C15.0616 20.0235 15.8663 19.8894 16.6214 19.6022C17.3764 19.315 18.0668 18.8803 18.6522 18.3236L19.1669 17.809C19.7006 17.2741 20.0003 16.5491 20 15.7935C19.9997 15.0378 19.6995 14.3131 19.1652 13.7786ZM18.0174 16.6611L17.5028 17.1758C15.3922 19.2863 10.7337 18.9008 5.91433 14.0806C1.09501 9.26042 0.708624 4.59853 2.81916 2.48798L3.32974 1.97415C3.55964 1.74508 3.87094 1.61647 4.19547 1.61647C4.52 1.61647 4.8313 1.74508 5.06119 1.97415L6.84703 3.76C7.07274 3.98684 7.20086 4.29293 7.20405 4.61292C7.20723 4.93292 7.08523 5.24149 6.86407 5.47279C6.31556 6.0248 5.9734 6.74855 5.89493 7.52279C5.81646 8.29702 6.00644 9.0747 6.43304 9.72555C7.4441 11.2386 8.74427 12.5368 10.2588 13.5456C10.9077 13.9723 11.6833 14.1634 12.4561 14.087C13.229 14.0106 13.9522 13.6714 14.505 13.126C14.7359 12.9022 15.0453 12.7779 15.3668 12.7799C15.6883 12.7819 15.9962 12.9099 16.2243 13.1365L18.0101 14.9224C18.1252 15.0358 18.2167 15.1709 18.2794 15.3198C18.3421 15.4688 18.3748 15.6286 18.3754 15.7902C18.3761 15.9518 18.3448 16.112 18.2834 16.2614C18.222 16.4109 18.1316 16.5467 18.0174 16.6611Z" fill="#8936FF"></path>
</symbol>
<symbol viewBox="0 0 31 30" fill="none" id="return">
<path d="M15.7048 3.28354C18.4241 3.28977 21.0606 4.19758 23.1823 5.85823H20.5678C20.17 5.85823 19.7885 6.01253 19.5072 6.28719C19.2259 6.56185 19.0678 6.93436 19.0678 7.32279C19.0678 7.71121 19.2259 8.08373 19.5072 8.35839C19.7885 8.63305 20.17 8.78735 20.5678 8.78735H26.5678C26.9656 8.78735 27.3472 8.63305 27.6285 8.35839C27.9098 8.08373 28.0678 7.71121 28.0678 7.32279V1.46456C28.0678 1.07613 27.9098 0.703617 27.6285 0.428959C27.3472 0.154301 26.9656 0 26.5678 0C26.17 0 25.7885 0.154301 25.5072 0.428959C25.2259 0.703617 25.0678 1.07613 25.0678 1.46456V3.58524C22.8658 1.85496 20.2072 0.768515 17.3994 0.45151C14.5916 0.134505 11.7492 0.599887 9.20085 1.79385C6.65253 2.98781 4.50234 4.8616 2.99889 7.19857C1.49543 9.53553 0.700102 12.2402 0.704855 15C0.704855 15.3884 0.86289 15.7609 1.14419 16.0356C1.4255 16.3103 1.80703 16.4646 2.20485 16.4646C2.60268 16.4646 2.98421 16.3103 3.26551 16.0356C3.54682 15.7609 3.70485 15.3884 3.70485 15C3.70842 11.8937 4.97385 8.91557 7.22351 6.71906C9.47317 4.52256 12.5233 3.28703 15.7048 3.28354ZM29.2048 13.5354C28.807 13.5354 28.4255 13.6897 28.1442 13.9644C27.8629 14.2391 27.7048 14.6116 27.7048 15C27.7088 17.2065 27.0735 19.3691 25.8722 21.2381C24.6708 23.107 22.9525 24.606 20.9157 25.562C18.879 26.518 16.6067 26.8919 14.3615 26.6406C12.1163 26.3893 9.98973 25.523 8.22734 24.1418H10.8403C11.2382 24.1418 11.6197 23.9875 11.901 23.7128C12.1823 23.4382 12.3403 23.0656 12.3403 22.6772C12.3403 22.2888 12.1823 21.9163 11.901 21.6416C11.6197 21.367 11.2382 21.2127 10.8403 21.2127H4.84035C4.44253 21.2127 4.061 21.367 3.77969 21.6416C3.49839 21.9163 3.34035 22.2888 3.34035 22.6772V28.5354C3.34035 28.9239 3.49839 29.2964 3.77969 29.571C4.061 29.8457 4.44253 30 4.84035 30C5.23817 30 5.6197 29.8457 5.90101 29.571C6.18231 29.2964 6.34035 28.9239 6.34035 28.5354V26.4148C8.54251 28.1449 11.2012 29.2312 14.009 29.5481C16.8169 29.865 19.6593 29.3997 22.2076 28.2057C24.756 27.0118 26.9063 25.1381 28.4099 22.8013C29.9136 20.4644 30.7092 17.7598 30.7048 15C30.7048 14.6116 30.5468 14.2391 30.2655 13.9644C29.9842 13.6897 29.6026 13.5354 29.2048 13.5354Z" fill="#8936FF"></path>
</symbol>
<symbol viewBox="0 0 59 59" fill="none" id="rightButtonArrow">
<circle cx="29.5" cy="29.5" r="29.5" transform="rotate(-180 29.5 29.5)" fill="white"></circle>
<path d="M24 41L36 29L24 17" stroke="black"></path>
</symbol>
<symbol viewBox="0 0 34 30" fill="none" id="star">
<path d="M27.3341 29.9146C26.1245 30.7128 18.3631 25.6531 16.8767 25.642C15.3902 25.6309 7.54143 30.5743 6.34593 29.7581C5.15043 28.942 7.96099 20.5595 7.51309 19.2501C7.06519 17.9407 -0.449513 12.5725 0.0212138 11.2699C0.492044 9.96735 9.99043 9.84637 11.2 9.04818C12.4096 8.25008 15.6141 -0.0110137 17.1007 1.10247e-05C18.5871 0.0111317 21.6468 8.31891 22.8423 9.13503C24.0378 9.95106 33.533 10.2137 33.981 11.5231C34.4289 12.8324 26.8215 18.088 26.3507 19.3905C25.8799 20.6931 28.5438 29.1164 27.3341 29.9146Z" fill="url(#paint0_linear_55_494)"></path>
<defs>
<linearGradient id="paint0_linear_55_494" x1="15.4649" y1="-0.608108" x2="25.6797" y2="27.512" gradientUnits="userSpaceOnUse">
<stop stop-color="#E9A904"></stop>
<stop offset="1" stop-color="#FFC805"></stop>
</linearGradient>
</defs>
</symbol>
<symbol viewBox="0 0 47 46" fill="none" id="starDisabled">
<path d="M9.44625 45.8691C11.0828 47.093 21.5835 39.3347 23.5946 39.3177C25.6057 39.3008 36.2246 46.8805 37.8421 45.6291C39.4595 44.3778 35.657 31.5245 36.263 29.5168C36.8689 27.5091 47.0359 19.2778 46.399 17.2805C45.762 15.2833 32.9113 15.0978 31.2747 13.8739C29.6382 12.6501 25.3027 -0.0168877 23.2915 1.69045e-05C21.2805 0.0170685 17.1409 12.7557 15.5234 14.0071C13.906 15.2583 1.05959 15.6611 0.453468 17.6687C-0.152512 19.6764 10.1398 27.7349 10.7768 29.7322C11.4137 31.7294 7.80972 44.6452 9.44625 45.8691Z" fill="#EEEEEE"></path>
</symbol>
<symbol viewBox="0 0 30 30" fill="none" id="support">
<g clip-path="url(#clip0_55_506)">
<path d="M26.8792 15.0273C25.8597 14.8512 24.7804 16.4435 24.4683 18.5838C24.1563 20.7241 24.7299 22.6018 25.7494 22.7779C26.7689 22.954 27.8482 21.3617 28.1602 19.2215C28.4722 17.0812 27.8987 15.2033 26.8792 15.0273ZM5.07811 15.0134C6.10159 14.8366 7.1852 16.4351 7.49844 18.5838C7.81167 20.7325 7.23584 22.6176 6.2124 22.7943C5.18895 22.9711 4.10534 21.3726 3.79214 19.2239C3.47893 17.0753 4.05467 15.1901 5.07811 15.0134Z" fill="#FFCC9D"></path>
<path d="M16.5337 29.5C22.3858 29.5 27.1298 23.7572 27.1298 16.6731C27.1298 9.589 22.3858 3.84619 16.5337 3.84619C10.6816 3.84619 5.9375 9.589 5.9375 16.6731C5.9375 23.7572 10.6816 29.5 16.5337 29.5Z" fill="#FFCC9D"></path>
<path d="M17.0974 27.2693L17.0914 26.5714C19.994 26.551 22.2749 25.781 23.8705 24.2831C25.4538 22.6447 26.3379 20.5444 26.3621 18.3639L27.1299 18.3462C27.1216 20.7159 26.1581 23.0006 24.4216 24.7683C22.6775 26.4059 20.2136 27.2475 17.0974 27.2693Z" fill="black"></path>
<path d="M17.0914 28.3846C18.3234 28.3846 19.3221 27.6355 19.3221 26.7115C19.3221 25.7875 18.3234 25.0385 17.0914 25.0385C15.8593 25.0385 14.8606 25.7875 14.8606 26.7115C14.8606 27.6355 15.8593 28.3846 17.0914 28.3846Z" fill="black"></path>
<path d="M28.2306 12.068C28.0134 8.42025 26.7298 7.38752 25.9234 7.10092C25.7762 7.05128 25.6508 6.95306 25.5682 6.82275C25.4856 6.69244 25.451 6.538 25.47 6.38539C25.6095 5.43903 25.2023 3.50472 20.7703 1.36588C14.5131 -1.65366 9.78021 4.06263 7.45391 5.72823C5.12761 7.39382 3.36271 8.10769 3.76385 13.8184C4.06769 18.1452 5.38473 20.4231 6.00511 21.273C6.0924 21.3905 6.21657 21.4763 6.35828 21.5168C6.49998 21.5573 6.65126 21.5503 6.78854 21.497C6.87567 21.4633 6.95482 21.4122 7.02102 21.3468C7.08722 21.2815 7.13904 21.2033 7.17322 21.1172C7.2074 21.0311 7.22321 20.939 7.21964 20.8465C7.21608 20.7541 7.19322 20.6634 7.15251 20.5802C6.63617 19.4213 6.57206 18.1145 6.97255 16.9116C7.77473 14.2149 6.97255 13.4902 9.21872 12.068C11.4649 10.6458 20.9327 6.0733 22.4548 7.07654C22.9361 7.39382 25.4229 8.33475 25.4229 12.068C25.4229 15.1404 26.0709 18.3681 25.6752 21.0066C25.6561 21.1572 25.6945 21.3094 25.7828 21.4335C25.8712 21.5575 26.0031 21.6446 26.1529 21.6777C26.3027 21.7107 26.4596 21.6874 26.5929 21.6122C26.7262 21.537 26.8264 21.4153 26.8739 21.271C27.876 18.3075 28.3355 15.1911 28.2306 12.068Z" fill="black"></path>
</g>
<defs>
<clipPath id="clip0_55_506">
<rect width="29" height="29" fill="white" transform="translate(0.704834 0.5)"></rect>
</clipPath>
</defs>
</symbol>
<symbol viewBox="0 0 18 15" fill="none" id="telegramColor">
<path d="M13.1164 4.73268C13.6684 4.18068 14.2164 2.89268 11.9164 4.45668C9.76782 5.93536 7.60471 7.39276 5.42736 8.82868C5.0958 8.97861 4.73735 9.05997 4.37356 9.06787C4.00976 9.07578 3.64812 9.01007 3.31036 8.87468C1.93036 8.46068 0.319359 7.90868 0.319359 7.90868C0.319359 7.90868 -0.780641 7.21768 1.10236 6.48168C1.10236 6.48168 9.06336 3.21468 11.8244 2.06368C12.8824 1.60368 16.4714 0.131682 16.4714 0.131682C16.4714 0.131682 18.1284 -0.513318 17.9904 1.05168C17.9444 1.69568 17.5764 3.95168 17.2084 6.38968C16.6554 9.84068 16.0574 13.6147 16.0574 13.6147C16.0574 13.6147 15.9654 14.6727 15.1834 14.8567C14.3462 14.8425 13.5374 14.5513 12.8834 14.0287C12.6994 13.8907 9.43236 11.8197 8.23536 10.8077C8.1136 10.7252 8.01468 10.6133 7.9478 10.4823C7.88092 10.3513 7.84825 10.2055 7.85284 10.0585C7.85743 9.91152 7.89913 9.76807 7.97405 9.64151C8.04897 9.51496 8.15469 9.40941 8.28136 9.33468C9.92311 7.8326 11.5351 6.29831 13.1164 4.73268Z" fill="#0094FF"></path>
</symbol>
<symbol viewBox="0 0 11 11" fill="none" id="topLeftArrow">
<path d="M10.4992 10.8114L1.12353 1.18867M1.12353 1.18867L1.02601 8.68804M1.12353 1.18867L8.6229 1.28619" stroke="black" stroke-width="0.5"></path>
</symbol>
<symbol viewBox="0 0 11 10" fill="none" id="topRightArrow">
<path d="M1 9.75L10.5 0.25M10.5 0.25H3M10.5 0.25V7.75" stroke="black" stroke-width="0.5"></path>
</symbol>
<symbol viewBox="0 0 11 11" fill="none" id="topRightPurpleArrow">
<path d="M1 10.4L10.5 0.900024M10.5 0.900024H3M10.5 0.900024V8.40002" stroke="#8936FF" stroke-width="0.5"></path>
</symbol>
<symbol viewBox="0 0 20 17" fill="none" id="twitter">
<path d="M20 1.9506C19.2483 2.2767 18.4534 2.49226 17.64 2.5906C18.4982 2.07792 19.1413 1.27138 19.45 0.3206C18.6436 0.800663 17.7608 1.1389 16.84 1.3206C16.2245 0.653172 15.405 0.208897 14.5098 0.0574517C13.6147 -0.0939932 12.6945 0.0559587 11.8938 0.48379C11.093 0.911621 10.4569 1.59313 10.0852 2.42144C9.71355 3.24974 9.62729 4.17799 9.84 5.0606C8.20943 4.97813 6.61444 4.55355 5.15865 3.81446C3.70287 3.07537 2.41885 2.03829 1.39 0.7706C1.02914 1.40077 0.839519 2.11442 0.84 2.8406C0.83872 3.51498 1.00422 4.17922 1.32176 4.77416C1.63929 5.36911 2.09902 5.87631 2.66 6.2506C2.00798 6.23286 1.36989 6.0579 0.8 5.7406V5.7906C0.804887 6.73549 1.13599 7.64969 1.73731 8.37857C2.33864 9.10744 3.17326 9.60624 4.1 9.7906C3.74326 9.89917 3.37287 9.95641 3 9.9606C2.74189 9.95759 2.48442 9.93418 2.23 9.8906C2.49391 10.7034 3.00462 11.4137 3.69107 11.9228C4.37753 12.4318 5.20558 12.7142 6.06 12.7306C4.6172 13.8659 2.83588 14.4855 1 14.4906C0.665735 14.4917 0.331736 14.4717 0 14.4306C1.87443 15.6409 4.05881 16.2833 6.29 16.2806C7.82969 16.2966 9.35714 16.0056 10.7831 15.4247C12.2091 14.8437 13.505 13.9845 14.5952 12.8971C15.6854 11.8097 16.548 10.516 17.1326 9.09151C17.7172 7.66702 18.012 6.14033 18 4.6006C18 4.4306 18 4.2506 18 4.0706C18.7847 3.48541 19.4615 2.76803 20 1.9506Z" fill="white"></path>
</symbol>
<symbol viewBox="0 0 20 17" fill="none" id="twitterColor">
<path d="M20 1.9506C19.2483 2.2767 18.4534 2.49226 17.64 2.5906C18.4982 2.07792 19.1413 1.27138 19.45 0.3206C18.6436 0.800663 17.7608 1.1389 16.84 1.3206C16.2245 0.653172 15.405 0.208897 14.5098 0.0574517C13.6147 -0.0939932 12.6945 0.0559587 11.8938 0.48379C11.093 0.911621 10.4569 1.59313 10.0852 2.42144C9.71355 3.24974 9.62729 4.17799 9.84 5.0606C8.20943 4.97813 6.61444 4.55355 5.15865 3.81446C3.70287 3.07537 2.41885 2.03829 1.39 0.7706C1.02914 1.40077 0.839519 2.11442 0.84 2.8406C0.83872 3.51498 1.00422 4.17922 1.32176 4.77416C1.63929 5.36911 2.09902 5.87631 2.66 6.2506C2.00798 6.23286 1.36989 6.0579 0.8 5.7406V5.7906C0.804887 6.73549 1.13599 7.64969 1.73731 8.37857C2.33864 9.10744 3.17326 9.60624 4.1 9.7906C3.74326 9.89917 3.37287 9.95641 3 9.9606C2.74189 9.95759 2.48442 9.93418 2.23 9.8906C2.49391 10.7034 3.00462 11.4137 3.69107 11.9228C4.37753 12.4318 5.20558 12.7142 6.06 12.7306C4.6172 13.8659 2.83588 14.4855 1 14.4906C0.665735 14.4917 0.331736 14.4717 0 14.4306C1.87443 15.6409 4.05881 16.2833 6.29 16.2806C7.82969 16.2966 9.35714 16.0056 10.7831 15.4247C12.2091 14.8437 13.505 13.9845 14.5952 12.8971C15.6854 11.8097 16.548 10.516 17.1326 9.09151C17.7172 7.66702 18.012 6.14033 18 4.6006C18 4.4306 18 4.2506 18 4.0706C18.7847 3.48541 19.4615 2.76803 20 1.9506Z" fill="#36CFFF"></path>
</symbol>
<symbol viewBox="0 0 27 27" fill="none" id="user">
<path d="M13.7456 16.75C17.3355 16.75 20.2456 13.8399 20.2456 10.25C20.2456 6.66015 17.3355 3.75 13.7456 3.75C10.1558 3.75 7.24561 6.66015 7.24561 10.25C7.24561 13.8399 10.1558 16.75 13.7456 16.75Z" stroke="black" stroke-width="1.5" stroke-miterlimit="10"></path>
<path d="M3.89282 22.4366C4.89175 20.7075 6.3281 19.2718 8.05758 18.2736C9.78706 17.2754 11.7488 16.75 13.7456 16.75C15.7425 16.75 17.7042 17.2755 19.4336 18.2737C21.1631 19.2719 22.5994 20.7077 23.5983 22.4368" stroke="black" stroke-width="1.5" stroke-linecap="round" stroke-linejoin="round"></path>
</symbol>
</defs>
</svg>