<svg width="27" height="26" viewBox="0 0 27 26" fill="none" xmlns="http://www.w3.org/2000/svg">
<path d="M22.4184 7H19.4851C19.0803 7 18.7517 7.33113 18.7517 7.73913C18.7517 8.14713 19.0803 8.47826 19.4851 8.47826H22.4184C22.8225 8.47826 23.1517 8.81013 23.1517 9.21739V10.6957C23.1517 11.1029 22.8225 11.4348 22.4184 11.4348H4.81841C4.41434 11.4348 4.08507 11.1029 4.08507 10.6957V9.21739C4.08507 8.81013 4.41434 8.47826 4.81841 8.47826H7.75174C8.15654 8.47826 8.48507 8.14713 8.48507 7.73913C8.48507 7.33113 8.15654 7 7.75174 7H4.81841C3.60547 7 2.61841 7.99487 2.61841 9.21739V10.6957C2.61841 11.6861 3.27034 12.5169 4.16134 12.8007L5.36401 21.8927C5.52021 23.0746 6.56887 24 7.75174 24H19.4851C20.6679 24 21.7166 23.0746 21.8721 21.8935L23.0747 12.8007C23.9665 12.5169 24.6184 11.6861 24.6184 10.6957V9.21739C24.6184 7.99487 23.6313 7 22.4184 7ZM20.4186 21.6983C20.3607 22.1367 19.9243 22.5217 19.4851 22.5217H7.75174C7.31248 22.5217 6.87614 22.1367 6.81821 21.6976L5.65587 12.913H21.5809L20.4186 21.6983Z" fill="white"/>
<path d="M9.06713 10.9468C9.15427 10.9827 9.24427 11 9.33284 11C9.61642 11 9.88427 10.8215 9.99642 10.5283L12.8536 3.02849C13 2.64376 12.8221 2.20727 12.4557 2.05352C12.0871 1.90053 11.6736 2.08652 11.5271 2.47126L8.66999 9.97103C8.52284 10.3565 8.70142 10.7923 9.06713 10.9468ZM17.2407 10.529C17.3528 10.8215 17.6214 11 17.9043 11C17.9928 11 18.0821 10.9827 18.1693 10.946C18.5357 10.7915 18.7136 10.3558 18.5671 9.97103L15.71 2.47126C15.5636 2.08727 15.1486 1.90203 14.7814 2.05352C14.415 2.20802 14.2371 2.64376 14.3836 3.02849L17.2407 10.529Z" fill="white"/>
</svg>
