<svg width="40" height="42" viewBox="0 0 40 42" fill="none" xmlns="http://www.w3.org/2000/svg">
<path d="M36 9.40332H30.6667C29.9307 9.40332 29.3333 10.0261 29.3333 10.7934C29.3333 11.5608 29.9307 12.1835 30.6667 12.1835H36C36.7347 12.1835 37.3333 12.8077 37.3333 13.5736V16.3538C37.3333 17.1198 36.7347 17.7439 36 17.7439H4C3.26533 17.7439 2.66667 17.1198 2.66667 16.3538V13.5736C2.66667 12.8077 3.26533 12.1835 4 12.1835H9.33333C10.0693 12.1835 10.6667 11.5608 10.6667 10.7934C10.6667 10.0261 10.0693 9.40332 9.33333 9.40332H4C1.79467 9.40332 0 11.2744 0 13.5736V16.3538C0 18.2165 1.18533 19.779 2.80533 20.3128L4.992 37.4124C5.276 39.6352 7.18267 41.3756 9.33333 41.3756H30.6667C32.8173 41.3756 34.724 39.6352 35.0067 37.4138L37.1933 20.3128C38.8147 19.779 40 18.2165 40 16.3538V13.5736C40 11.2744 38.2053 9.40332 36 9.40332ZM32.364 37.0468C32.2587 37.8711 31.4653 38.5954 30.6667 38.5954H9.33333C8.53467 38.5954 7.74133 37.8711 7.636 37.0454L5.52267 20.5241H34.4773L32.364 37.0468Z" fill="#8936FF"/>
<path d="M11.725 16.8263C11.8835 16.894 12.0471 16.9265 12.2082 16.9265C12.7237 16.9265 13.2108 16.5908 13.4146 16.0393L18.6095 1.93431C18.8757 1.21073 18.5523 0.389817 17.8861 0.100665C17.216 -0.187077 16.464 0.162727 16.1978 0.886311L11.003 14.9913C10.7354 15.7163 11.0601 16.5358 11.725 16.8263ZM26.5861 16.0407C26.79 16.5908 27.2783 16.9265 27.7926 16.9265C27.9536 16.9265 28.116 16.894 28.2744 16.8249C28.9406 16.5344 29.264 15.7149 28.9978 14.9913L23.803 0.886311C23.5367 0.164137 22.7822 -0.184256 22.1147 0.100665C21.4484 0.391227 21.125 1.21073 21.3913 1.93431L26.5861 16.0407Z" fill="#8936FF"/>
</svg>
