<svg width="17" height="21" viewBox="0 0 17 21" fill="none" xmlns="http://www.w3.org/2000/svg">
<path d="M11.018 17.724C11.018 17.976 10.8458 18.144 10.5876 18.144C10.3724 18.144 10.1572 17.976 10.1572 17.724V7.728C10.1572 7.476 10.3294 7.308 10.5876 7.308C10.8458 7.308 11.018 7.476 11.018 7.728V17.724Z" fill="#BBBBBB"/>
<path d="M6.84331 17.724C6.84331 17.976 6.67116 18.144 6.41294 18.144C6.15471 18.144 5.98256 17.976 5.98256 17.724V7.728C5.98256 7.476 6.15471 7.308 6.41294 7.308C6.67116 7.308 6.84331 7.476 6.84331 7.728V17.724Z" fill="#BBBBBB"/>
<path fill-rule="evenodd" clip-rule="evenodd" d="M13.6 21H3.44304C2.28101 21 1.33418 20.076 1.33418 18.984V5.334H0.43038C0.172152 5.334 0 5.166 0 4.914V3.948C0 3.108 0.688608 2.394 1.59241 2.394H5.25063V1.302C5.25063 0.588 5.85316 0 6.58481 0H10.4152C11.1468 0 11.7494 0.588 11.7494 1.302V2.394H15.4076C16.2684 2.394 17 3.066 17 3.948V4.914C17 5.166 16.8278 5.334 16.5696 5.334H15.6658V18.984C15.6658 20.076 14.762 21 13.6 21ZM13.6 20.16C14.2456 20.16 14.8051 19.656 14.8051 18.984H14.8481V5.334H2.23797V18.984C2.23797 19.614 2.75443 20.16 3.44304 20.16H13.6ZM6.58481 0.84C6.32658 0.84 6.11139 1.05 6.11139 1.302H6.15443V2.394H10.8886V1.302C10.8886 1.05 10.6734 0.84 10.4152 0.84H6.58481ZM1.59241 3.234C1.20506 3.234 0.860759 3.528 0.860759 3.948V4.494H16.0962V3.948C16.0962 3.57 15.7949 3.234 15.3646 3.234H1.59241Z" fill="#BBBBBB"/>
</svg>
