<svg width="39" height="40" viewBox="0 0 39 40" fill="none" xmlns="http://www.w3.org/2000/svg">
<path d="M38.86 20.3714C38.86 18.7463 38.7281 17.5604 38.4427 16.3306H19.8855V23.6655H30.7782C30.5586 25.4884 29.3727 28.2335 26.7373 30.0782L26.7004 30.3237L32.5678 34.8692L32.9744 34.9097C36.7077 31.4618 38.86 26.3887 38.86 20.3714Z" fill="#4285F4"/>
<path d="M19.8861 39.6973C25.2226 39.6973 29.7026 37.9403 32.9749 34.9097L26.7379 30.0782C25.0689 31.2421 22.8288 32.0547 19.8861 32.0547C14.6594 32.0547 10.2232 28.6069 8.64188 23.8413L8.41009 23.861L2.30903 28.5827L2.22925 28.8045C5.47947 35.261 12.1557 39.6973 19.8861 39.6973Z" fill="#34A853"/>
<path d="M8.64171 23.841C8.22445 22.6112 7.98297 21.2934 7.98297 19.9319C7.98297 18.5702 8.22445 17.2526 8.61975 16.0228L8.6087 15.7609L2.43119 10.9634L2.22907 11.0595C0.8895 13.7388 0.12085 16.7476 0.12085 19.9319C0.12085 23.1163 0.8895 26.1249 2.22907 28.8042L8.64171 23.841Z" fill="#FBBC05"/>
<path d="M19.8861 7.80943C23.5975 7.80943 26.101 9.41259 27.5285 10.7523L33.1067 5.30591C29.6808 2.12155 25.2226 0.166992 19.8861 0.166992C12.1557 0.166992 5.47947 4.60312 2.22925 11.0597L8.61993 16.023C10.2232 11.2574 14.6594 7.80943 19.8861 7.80943Z" fill="#EB4335"/>
</svg>
