<svg width="20" height="20" viewBox="0 0 20 20" fill="none" xmlns="http://www.w3.org/2000/svg">
<path opacity="0.5" d="M19.1652 13.7786L17.3794 11.9928C16.8471 11.4647 16.1285 11.167 15.3787 11.1638C14.6289 11.1606 13.9078 11.4522 13.371 11.9757C13.0846 12.2638 12.7067 12.443 12.3024 12.4826C11.8981 12.5221 11.4926 12.4196 11.1558 12.1925C9.82629 11.3052 8.68417 10.1653 7.79433 8.83749C7.57123 8.4969 7.47235 8.08981 7.51434 7.68482C7.55633 7.27983 7.73663 6.90169 8.02487 6.61411C8.54365 6.07679 8.83149 5.35774 8.82679 4.61086C8.82208 3.86398 8.52521 3.14861 7.9997 2.61786L6.21387 0.832012C5.67921 0.299185 4.95516 0 4.20034 0C3.44552 0 2.72146 0.299185 2.18681 0.832012L1.67297 1.34666C-1.00578 4.02544 -0.805278 9.65736 4.76815 15.2276C8.12877 18.5891 11.5113 19.9966 14.2542 19.9966C15.0616 20.0235 15.8663 19.8894 16.6214 19.6022C17.3764 19.315 18.0668 18.8803 18.6522 18.3236L19.1669 17.809C19.7006 17.2741 20.0003 16.5491 20 15.7935C19.9997 15.0378 19.6995 14.3131 19.1652 13.7786ZM18.0174 16.6611L17.5028 17.1758C15.3922 19.2863 10.7337 18.9008 5.91433 14.0806C1.09501 9.26042 0.708624 4.59853 2.81916 2.48798L3.32974 1.97415C3.55964 1.74508 3.87094 1.61647 4.19547 1.61647C4.52 1.61647 4.8313 1.74508 5.06119 1.97415L6.84703 3.76C7.07274 3.98684 7.20086 4.29293 7.20405 4.61292C7.20723 4.93292 7.08523 5.24149 6.86407 5.47279C6.31556 6.0248 5.9734 6.74855 5.89493 7.52279C5.81646 8.29702 6.00644 9.0747 6.43304 9.72555C7.4441 11.2386 8.74427 12.5368 10.2588 13.5456C10.9077 13.9723 11.6833 14.1634 12.4561 14.087C13.229 14.0106 13.9522 13.6714 14.505 13.126C14.7359 12.9022 15.0453 12.7779 15.3668 12.7799C15.6883 12.7819 15.9962 12.9099 16.2243 13.1365L18.0101 14.9224C18.1252 15.0358 18.2167 15.1709 18.2794 15.3198C18.3421 15.4688 18.3748 15.6286 18.3754 15.7902C18.3761 15.9518 18.3448 16.112 18.2834 16.2614C18.222 16.4109 18.1316 16.5467 18.0174 16.6611Z" fill="#8936FF"/>
</svg>
