<svg width="30" height="30" viewBox="0 0 30 30" fill="none" xmlns="http://www.w3.org/2000/svg">
<path d="M27.6037 13.7212C28.5047 8.50274 28.6644 0.814053 27.6037 0.114145C26.5429 -0.584904 19.1379 2.01573 17.5896 5.4861C16.7449 5.25709 14.9958 5.14387 14.9958 5.14387C14.9958 5.14387 13.3029 5.25709 12.459 5.4861C10.9108 2.01573 3.44777 -0.584904 2.38786 0.114145C1.32712 0.814053 1.48514 8.50274 2.38786 13.7212C2.38786 13.7212 1.57507 15.4186 1.57507 21.3978L15.0235 17.9952V17.2773L28.4719 21.4261C28.4719 15.4186 27.6037 13.7212 27.6037 13.7212Z" fill="#FFCB4E"/>
<path d="M19.9935 15.6785C18.241 15.6785 16.402 16.0876 15.0235 16.7772C13.6459 16.0876 11.8068 15.6785 10.0543 15.6785C1.7062 15.6785 1.57507 20.0529 1.57507 21.3944C1.57507 22.7316 3.22839 30 14.9958 30C26.7631 30 28.4719 22.7599 28.4719 21.4227C28.4719 20.0812 28.3408 15.6785 19.9935 15.6785Z" fill="#FFD882"/>
<path d="M19.5396 6.04791C21.3635 4.00394 25.1551 2.46947 25.9335 2.66417C26.5655 2.81942 26.4672 8.14163 25.9604 11.1874C23.8061 7.54207 19.5396 6.04791 19.5396 6.04791ZM10.5073 6.04791C8.68501 4.00394 4.89256 2.46947 4.11507 2.66417C3.48131 2.81942 3.57966 8.14163 4.08817 11.1874C6.24244 7.54207 10.5073 6.04791 10.5073 6.04791Z" fill="#F28F20"/>
<path d="M18.3916 16.2943C18.3916 12.269 16.871 5.14387 14.9958 5.14387C13.1206 5.14387 11.6001 12.269 11.6001 16.2943C11.6001 20.3214 13.1206 18.0098 14.9958 18.0098C16.871 18.0098 18.3916 20.3214 18.3916 16.2943Z" fill="#FAAA35"/>
<path d="M12.491 13.7203C12.491 14.6681 11.7311 15.4358 10.7931 15.4358C10.3452 15.4378 9.91477 15.2583 9.59654 14.9366C9.27831 14.6149 9.09829 14.1774 9.09607 13.7203C9.09607 12.7734 9.85591 12.0066 10.7931 12.0066C11.7311 12.0066 12.491 12.7734 12.491 13.7203ZM20.913 13.7212C20.913 14.6689 20.1532 15.4366 19.2152 15.4366C18.7672 15.4387 18.3368 15.2591 18.0186 14.9374C17.7004 14.6157 17.5204 14.1782 17.5181 13.7212C17.5181 12.7742 18.278 12.0074 19.2152 12.0074C20.1532 12.0074 20.913 12.7742 20.913 13.7212Z" fill="#2A2F33"/>
<path d="M15.0125 23.9067C14.7896 23.9067 14.5758 23.8163 14.4182 23.6555C14.2606 23.4946 14.172 23.2764 14.172 23.049V20.583C14.172 20.3555 14.2606 20.1373 14.4182 19.9765C14.5758 19.8156 14.7896 19.7253 15.0125 19.7253C15.2354 19.7253 15.4492 19.8156 15.6069 19.9765C15.7645 20.1373 15.853 20.3555 15.853 20.583V23.049C15.853 23.2764 15.7645 23.4946 15.6069 23.6555C15.4492 23.8163 15.2354 23.9067 15.0125 23.9067Z" fill="#F28F20"/>
<path d="M18.4167 25.7997C15.0529 25.7997 14.2502 23.4315 14.2132 23.3157C14.1787 23.2087 14.1653 23.0957 14.1737 22.9834C14.1821 22.871 14.2121 22.7614 14.2621 22.6609C14.3121 22.5604 14.381 22.471 14.4649 22.3978C14.5489 22.3245 14.6461 22.2689 14.7512 22.2341C14.9608 22.1635 15.1892 22.1801 15.3868 22.2803C15.5845 22.3805 15.7354 22.5562 15.8069 22.7693C15.843 22.8688 16.5432 24.6023 19.8733 23.923C19.9817 23.9003 20.0933 23.8997 20.2019 23.9213C20.3104 23.943 20.4137 23.9863 20.5057 24.049C20.5977 24.1116 20.6766 24.1922 20.7379 24.2862C20.7992 24.3801 20.8416 24.4855 20.8626 24.5963C20.8843 24.7067 20.8845 24.8204 20.8631 24.9308C20.8417 25.0413 20.7992 25.1463 20.738 25.24C20.6768 25.3337 20.5981 25.4141 20.5064 25.4768C20.4147 25.5394 20.3119 25.583 20.2037 25.605C19.6158 25.7302 19.0172 25.7955 18.4167 25.7997Z" fill="#F28F20"/>
<path d="M11.5748 25.7997C11.0436 25.7997 10.4511 25.7414 9.78704 25.605C9.67885 25.583 9.57597 25.5394 9.48429 25.4768C9.39261 25.4141 9.31392 25.3337 9.25272 25.24C9.19152 25.1463 9.14901 25.0413 9.12762 24.9308C9.10624 24.8204 9.10639 24.7067 9.12807 24.5963C9.14904 24.4855 9.19138 24.38 9.25262 24.286C9.31386 24.192 9.39279 24.1113 9.48482 24.0487C9.57685 23.986 9.68016 23.9427 9.78874 23.9211C9.89733 23.8995 10.009 23.9002 10.1174 23.923C13.4812 24.6075 14.1922 22.8337 14.2208 22.7573C14.3 22.5468 14.4565 22.376 14.6571 22.2814C14.8577 22.1867 15.0865 22.1756 15.295 22.2504C15.5014 22.325 15.6709 22.4794 15.7668 22.6803C15.8627 22.8811 15.8774 23.1125 15.8077 23.3243C15.7691 23.441 14.9386 25.7997 11.5748 25.7997Z" fill="#F28F20"/>
<path d="M18.3747 17.6598C18.3747 19.1677 15.6715 21.0728 14.9958 21.0728C14.3216 21.0728 11.6177 19.1677 11.6177 17.6598C11.6177 16.1502 13.5038 16.2943 14.9958 16.2943C16.4885 16.2943 18.3747 16.1502 18.3747 17.6598Z" fill="#292F33"/>
<path d="M28.4627 26.5313C28.3433 26.5314 28.2252 26.5055 28.1164 26.4554C28.0075 26.4052 27.9104 26.332 27.8315 26.2406C27.8062 26.2106 25.1577 23.2368 19.0816 22.2744C18.971 22.2589 18.8646 22.221 18.7686 22.1631C18.6725 22.1051 18.5887 22.0282 18.5221 21.9369C18.4555 21.8455 18.4073 21.7415 18.3805 21.631C18.3537 21.5205 18.3487 21.4056 18.3658 21.2931C18.3829 21.1805 18.4218 21.0726 18.4803 20.9756C18.5387 20.8786 18.6155 20.7944 18.7061 20.728C18.7968 20.6616 18.8995 20.6143 19.0083 20.5888C19.117 20.5633 19.2297 20.5602 19.3396 20.5796C19.6409 20.6269 19.9413 20.6801 20.2407 20.7391C26.3278 21.9433 28.9813 24.9763 29.0964 25.1101C29.2021 25.2343 29.2705 25.3869 29.2936 25.5497C29.3167 25.7125 29.2935 25.8786 29.2267 26.0284C29.16 26.1781 29.0525 26.3051 28.917 26.3942C28.7816 26.4834 28.6239 26.531 28.4627 26.5313Z" fill="#F39120"/>
<path d="M19.2103 22.2839C19.0136 22.2828 18.8235 22.2115 18.673 22.0823C18.5225 21.9531 18.4211 21.7742 18.3864 21.5766C18.3517 21.379 18.386 21.1753 18.4832 21.0009C18.5805 20.8264 18.7345 20.6922 18.9186 20.6216C23.5222 18.8855 29.1403 20.4595 29.384 20.5281C29.5989 20.5889 29.7813 20.7344 29.8911 20.9325C30.0009 21.1306 30.0291 21.3651 29.9694 21.5844C29.9098 21.8037 29.7672 21.9898 29.5731 22.1019C29.379 22.2139 29.1492 22.2426 28.9343 22.1818C28.8805 22.1664 23.5903 20.6902 19.5019 22.2307C19.4085 22.2657 19.3098 22.2837 19.2103 22.2839ZM1.53737 26.5313C1.65679 26.5314 1.77485 26.5055 1.8837 26.4554C1.99254 26.4052 2.08967 26.332 2.16861 26.2406C2.19382 26.2106 4.84232 23.2368 10.9185 22.2744C11.029 22.2589 11.1354 22.221 11.2315 22.1631C11.3275 22.1051 11.4113 22.0282 11.478 21.9369C11.5446 21.8455 11.5927 21.7415 11.6196 21.631C11.6464 21.5205 11.6514 21.4056 11.6343 21.2931C11.6171 21.1805 11.5782 21.0726 11.5198 20.9756C11.4613 20.8786 11.3846 20.7944 11.2939 20.728C11.2033 20.6616 11.1006 20.6143 10.9918 20.5888C10.883 20.5633 10.7704 20.5602 10.6604 20.5796C10.3591 20.6269 10.0587 20.6801 9.7594 20.7391C3.67231 21.9433 1.01877 24.9763 0.903613 25.1101C0.797977 25.2343 0.729539 25.3869 0.706439 25.5497C0.683339 25.7125 0.70655 25.8786 0.773312 26.0284C0.840073 26.1781 0.947574 26.3051 1.08303 26.3942C1.21848 26.4834 1.37618 26.531 1.53737 26.5313Z" fill="#F39120"/>
<path d="M10.7898 22.2839C10.9865 22.2828 11.1766 22.2115 11.3271 22.0823C11.4776 21.9531 11.579 21.7742 11.6136 21.5766C11.6483 21.379 11.6141 21.1753 11.5168 21.0009C11.4196 20.8264 11.2655 20.6922 11.0814 20.6216C6.47788 18.8855 0.859798 20.4595 0.616046 20.5281C0.401149 20.5889 0.218743 20.7344 0.108954 20.9325C-0.000834479 21.1306 -0.0290125 21.3651 0.030619 21.5844C0.0902505 21.8037 0.232807 21.9898 0.426927 22.1019C0.621048 22.2139 0.850831 22.2426 1.06573 22.1818C1.11952 22.1664 6.40979 20.6902 10.4981 22.2307C10.5915 22.2657 10.6903 22.2837 10.7898 22.2839Z" fill="#F39120"/>
</svg>
