<svg width="30" height="30" viewBox="0 0 30 30" fill="none" xmlns="http://www.w3.org/2000/svg">
<path d="M12.5 25V27.5C12.5 27.5 12.5 30 15 30C17.5 30 17.5 27.5 17.5 27.5V25H12.5Z" fill="#DD2E44"/>
<path d="M11.6667 1.66667C11.7008 -0.833332 0 0 0 8.33333C0 11.6667 0 20 2.5 20C5.83333 20 11.6208 5 11.6667 1.66667ZM18.3333 1.66667C18.2992 -0.833332 30 0 30 8.33333C30 11.6667 30 20 27.5 20C24.1667 20 18.3792 5 18.3333 1.66667Z" fill="#9F6451"/>
<path d="M25.8334 18.3333C25.8334 24.1667 22.5001 24.1667 22.5001 24.1667H7.50008C7.50008 24.1667 4.16675 24.1667 4.16675 18.3333C4.16675 18.3333 5.00008 -1.90735e-06 15.0001 -1.90735e-06C25.0001 -1.90735e-06 25.8334 18.3333 25.8334 18.3333Z" fill="#FFD5C7"/>
<path d="M19.1666 18.3542V18.3333H10.8332V18.3542C10.0665 18.4236 9.32951 18.6851 8.69047 19.1145C8.05142 19.5439 7.53087 20.1274 7.17688 20.8111C6.82289 21.4948 6.64688 22.2567 6.6651 23.0264C6.68332 23.7962 6.89518 24.5489 7.28112 25.2151C7.66706 25.8813 8.21464 26.4395 8.87329 26.8382C9.53194 27.2369 10.2804 27.4632 11.0496 27.4963C11.8189 27.5293 12.584 27.368 13.2744 27.0273C13.9648 26.6865 14.5583 26.1773 14.9999 25.5467C15.4217 26.1499 15.9829 26.6425 16.6357 26.9825C17.2886 27.3226 18.0138 27.5001 18.7499 27.5C19.926 27.495 21.0552 27.0381 21.9038 26.2238C22.7524 25.4095 23.2556 24.3002 23.3091 23.1253C23.3626 21.9504 22.9624 20.7999 22.1914 19.9118C21.4203 19.0237 20.3374 18.4661 19.1666 18.3542Z" fill="#C18C7A"/>
<path d="M9.16675 13.3333C9.16675 13.3333 9.16675 11.6667 10.8334 11.6667C12.5001 11.6667 12.5001 13.3333 12.5001 13.3333V15C12.5001 15 12.5001 16.6667 10.8334 16.6667C9.16675 16.6667 9.16675 15 9.16675 15V13.3333ZM17.5001 13.3333C17.5001 13.3333 17.5001 11.6667 19.1667 11.6667C20.8334 11.6667 20.8334 13.3333 20.8334 13.3333V15C20.8334 15 20.8334 16.6667 19.1667 16.6667C17.5001 16.6667 17.5001 15 17.5001 15V13.3333ZM12.5001 20C11.6667 20.8333 14.1667 23.3333 15.0001 23.3333C15.8334 23.3333 18.3334 20.8333 17.5001 20C16.6667 19.1667 13.3334 19.1667 12.5001 20Z" fill="#272B2B"/>
</svg>
