<svg width="54" height="64" viewBox="0 0 54 64" fill="none" xmlns="http://www.w3.org/2000/svg">
<path d="M10.5393 56.5373C5.79472 55.1644 5.61384 52.1703 5.58688 50.4363C8.93317 49.1999 16.1352 46.6604 18.1729 46.3939C20.2107 46.1273 27.685 48.1977 31.1674 49.2663L37.4382 59.9866C36.5695 60.905 34.2113 62.6364 31.7287 62.215C28.6255 61.6882 26.7681 58.3464 23.216 57.2931C19.664 56.2397 15.2838 57.9101 10.5393 56.5373Z" fill="white" fill-opacity="0.1"/>
<path d="M17.7293 17.9735C16.151 15.6848 16.4793 12.601 17.4804 10.7236C24.0135 8.27617 28.7265 13.737 28.5146 16.7587C28.3026 19.7804 24.8736 21.0523 22.8861 21.0345C21.1967 21.0193 18.8654 19.6209 17.7293 17.9735Z" fill="white" fill-opacity="0.1"/>
<path d="M30.4946 20.2694C29.7911 18.2002 31.0873 16.1013 31.8234 15.3104C35.3452 15.9816 42.6782 17.5648 43.835 18.5289C45.281 19.7341 44.6933 21.9275 43.4232 23.7336C42.153 25.5397 39.1768 26.3776 36.0082 25.7329C32.8396 25.0883 31.374 22.8558 30.4946 20.2694Z" fill="white" fill-opacity="0.1"/>
<path d="M37.058 35.7904C36.3802 32.5281 38.505 30.3902 39.4158 29.8874C41.7106 31.218 46.3318 33.9063 46.4579 34.0148C46.6156 34.1504 48.5462 39.6155 48.1347 40.0654C47.7231 40.5152 45.6478 42.1063 42.7955 41.5288C39.9432 40.9512 37.7359 39.0528 37.058 35.7904Z" fill="white" fill-opacity="0.1"/>
<path d="M4.73409 32.2223C-1.07585 31.85 0.561257 27.9457 1.98735 25.5642C4.82622 23.7915 11.0293 20.5645 13.1307 21.8383C15.7574 23.4304 15.7098 26.1813 14.4675 28.6121C13.2252 31.0429 10.544 32.5946 4.73409 32.2223Z" fill="white" fill-opacity="0.1"/>
<path d="M52.2648 31.9491C52.599 30.0018 50.8036 25.8543 49.4182 25.0757C47.6575 24.2984 44.0752 25.0698 42.0311 26.0498C39.9869 27.0297 38.1302 30.8097 38.6675 33.7035C39.2049 36.5973 42.9948 42.3995 47.1562 40.8666C51.3175 39.3336 51.9305 33.8964 52.2648 31.9491Z" fill="white"/>
<path d="M1.85773 24.6579C2.79329 18.3331 7.40648 12.8032 8.84689 13.0939C10.7947 13.6158 13.5094 19.7751 13.595 23.7051C13.6807 27.6352 10.0645 28.3816 9.03625 28.6778C8.00794 28.9741 0.922169 30.9826 1.85773 24.6579Z" fill="white"/>
<path d="M30.0809 13.1209C31.5067 10.4758 33.2561 5.47614 31.3996 3.61157C29.3539 1.30573 26.1385 2.98307 24.5562 3.5356C22.9739 4.08814 18.3165 6.9415 17.1936 11.1325C16.0706 15.3235 19.3588 17.9623 22.4886 18.8986C25.6183 19.8348 28.655 15.766 30.0809 13.1209Z" fill="white"/>
<path d="M45.863 15.8159C46.2341 12.3178 43.8651 7.42276 40.2549 6.45541C37.7894 5.79479 31.5274 12.2587 32.1221 17.4356C32.7168 22.6126 37.9015 23.3391 40.8915 23.0989C43.8815 22.8587 45.492 19.314 45.863 15.8159Z" fill="white"/>
<path d="M32.1441 61.2739C26.542 59.8257 21.6885 51.0667 21.6885 51.0667C21.6885 51.0667 13.4099 55.7436 8.67015 54.4549C3.93037 53.1663 1.42383 49.9205 2.94786 44.2327C4.47188 38.545 8.18017 36.265 14.1864 33.8679C20.1927 31.4709 26.5376 29.6629 26.5376 29.6629C26.5376 29.6629 35.0914 39.3 38.9491 44.3401C42.8068 49.3802 42.5531 52.9371 42.0761 54.7171C41.5992 56.4972 37.7462 62.722 32.1441 61.2739Z" fill="white"/>
</svg>
