<svg width="37" height="43" viewBox="0 0 37 43" fill="none" xmlns="http://www.w3.org/2000/svg">
<path d="M7.0918 38.1745C3.89922 37.2507 3.7775 35.2359 3.75936 34.0692C6.01107 33.2372 10.8573 31.5284 12.2285 31.349C13.5997 31.1696 18.6291 32.5628 20.9724 33.2819L25.192 40.4955C24.6074 41.1135 23.0207 42.2786 21.3501 41.995C19.262 41.6405 18.0121 39.3918 15.622 38.6831C13.2318 37.9743 10.2844 39.0983 7.0918 38.1745Z" fill="black" fill-opacity="0.1"/>
<path d="M11.93 12.2249C10.8679 10.6849 11.0888 8.60975 11.7625 7.34647C16.1586 5.6996 19.33 9.37417 19.1873 11.4075C19.0447 13.4408 16.7374 14.2966 15.4 14.2846C14.2632 14.2744 12.6944 13.3334 11.93 12.2249Z" fill="black" fill-opacity="0.1"/>
<path d="M20.5196 13.7699C20.0463 12.3776 20.9185 10.9652 21.4138 10.4331C23.7836 10.8847 28.7179 11.9501 29.4963 12.5988C30.4694 13.4097 30.0739 14.8857 29.2192 16.101C28.3646 17.3163 26.3619 17.8801 24.2297 17.4463C22.0975 17.0126 21.1114 15.5104 20.5196 13.7699Z" fill="black" fill-opacity="0.1"/>
<path d="M24.9363 24.2138C24.4801 22.0186 25.9099 20.58 26.5228 20.2416C28.0669 21.137 31.1765 22.946 31.2614 23.019C31.3675 23.1102 32.6666 26.7877 32.3897 27.0904C32.1128 27.3931 30.7163 28.4637 28.797 28.0751C26.8777 27.6865 25.3924 26.409 24.9363 24.2138Z" fill="black" fill-opacity="0.1"/>
<path d="M3.18551 21.8131C-0.723976 21.5626 0.377629 18.9354 1.33724 17.3329C3.24751 16.14 7.42155 13.9686 8.83557 14.8257C10.6031 15.8971 10.571 17.7482 9.73509 19.3838C8.89915 21.0195 7.095 22.0637 3.18551 21.8131Z" fill="black" fill-opacity="0.1"/>
<g filter="url(#filter0_i_2580_40)">
<path d="M35.1688 21.6293C35.3938 20.3189 34.1856 17.5281 33.2534 17.0042C32.0686 16.4811 29.6581 17.0002 28.2826 17.6596C26.9071 18.3191 25.6577 20.8626 26.0193 22.8098C26.3809 24.757 28.9311 28.6613 31.7313 27.6298C34.5314 26.5983 34.9439 22.9396 35.1688 21.6293Z" fill="black"/>
</g>
<g filter="url(#filter1_i_2580_40)">
<path d="M1.2501 16.7228C1.87964 12.4669 4.98384 8.7459 5.95308 8.94148C7.26374 9.29267 9.09045 13.4372 9.14809 16.0818C9.20572 18.7263 6.77244 19.2285 6.0805 19.4279C5.38856 19.6272 0.620562 20.9787 1.2501 16.7228Z" fill="black"/>
</g>
<g filter="url(#filter2_i_2580_40)">
<path d="M20.2413 8.95974C21.2007 7.17986 22.3779 3.81562 21.1286 2.56095C19.7521 1.00936 17.5884 2.13803 16.5237 2.50983C15.459 2.88163 12.3251 4.80165 11.5694 7.62176C10.8138 10.4419 13.0264 12.2175 15.1324 12.8475C17.2384 13.4775 19.2818 10.7396 20.2413 8.95974Z" fill="black"/>
</g>
<g filter="url(#filter3_i_2580_40)">
<path d="M30.861 10.7732C31.1107 8.41936 29.5166 5.12553 27.0873 4.4746C25.4283 4.03007 21.2146 8.37959 21.6148 11.8631C22.015 15.3467 25.5037 15.8356 27.5157 15.6739C29.5277 15.5123 30.6113 13.1271 30.861 10.7732Z" fill="black"/>
</g>
<g filter="url(#filter4_i_2580_40)">
<path d="M21.6297 41.3615C17.86 40.387 14.5942 34.4931 14.5942 34.4931C14.5942 34.4931 9.0235 37.6402 5.83411 36.773C2.64473 35.9059 0.958088 33.7218 1.9836 29.8946C3.00912 26.0673 5.50441 24.5331 9.54599 22.9201C13.5876 21.3071 17.857 20.0905 17.857 20.0905C17.857 20.0905 23.6129 26.5753 26.2087 29.9668C28.8046 33.3583 28.6338 35.7517 28.3129 36.9495C27.992 38.1472 25.3993 42.3359 21.6297 41.3615Z" fill="black"/>
</g>
<defs>
<filter id="filter0_i_2580_40" x="25.9562" y="16.79" width="9.23999" height="11.0104" filterUnits="userSpaceOnUse" color-interpolation-filters="sRGB">
<feFlood flood-opacity="0" result="BackgroundImageFix"/>
<feBlend mode="normal" in="SourceGraphic" in2="BackgroundImageFix" result="shape"/>
<feColorMatrix in="SourceAlpha" type="matrix" values="0 0 0 0 0 0 0 0 0 0 0 0 0 0 0 0 0 0 127 0" result="hardAlpha"/>
<feOffset dy="10"/>
<feComposite in2="hardAlpha" operator="arithmetic" k2="-1" k3="1"/>
<feColorMatrix type="matrix" values="0 0 0 0 0 0 0 0 0 0 0 0 0 0 0 0 0 0 0.05 0"/>
<feBlend mode="normal" in2="shape" result="effect1_innerShadow_2580_40"/>
</filter>
<filter id="filter1_i_2580_40" x="1.19299" y="8.93408" width="7.95605" height="10.8541" filterUnits="userSpaceOnUse" color-interpolation-filters="sRGB">
<feFlood flood-opacity="0" result="BackgroundImageFix"/>
<feBlend mode="normal" in="SourceGraphic" in2="BackgroundImageFix" result="shape"/>
<feColorMatrix in="SourceAlpha" type="matrix" values="0 0 0 0 0 0 0 0 0 0 0 0 0 0 0 0 0 0 127 0" result="hardAlpha"/>
<feOffset dy="10"/>
<feComposite in2="hardAlpha" operator="arithmetic" k2="-1" k3="1"/>
<feColorMatrix type="matrix" values="0 0 0 0 0 0 0 0 0 0 0 0 0 0 0 0 0 0 0.05 0"/>
<feBlend mode="normal" in2="shape" result="effect1_innerShadow_2580_40"/>
</filter>
<filter id="filter2_i_2580_40" x="11.4181" y="1.76453" width="10.2516" height="11.1753" filterUnits="userSpaceOnUse" color-interpolation-filters="sRGB">
<feFlood flood-opacity="0" result="BackgroundImageFix"/>
<feBlend mode="normal" in="SourceGraphic" in2="BackgroundImageFix" result="shape"/>
<feColorMatrix in="SourceAlpha" type="matrix" values="0 0 0 0 0 0 0 0 0 0 0 0 0 0 0 0 0 0 127 0" result="hardAlpha"/>
<feOffset dy="10"/>
<feComposite in2="hardAlpha" operator="arithmetic" k2="-1" k3="1"/>
<feColorMatrix type="matrix" values="0 0 0 0 0 0 0 0 0 0 0 0 0 0 0 0 0 0 0.05 0"/>
<feBlend mode="normal" in2="shape" result="effect1_innerShadow_2580_40"/>
</filter>
<filter id="filter3_i_2580_40" x="21.5881" y="4.44312" width="9.29858" height="11.2576" filterUnits="userSpaceOnUse" color-interpolation-filters="sRGB">
<feFlood flood-opacity="0" result="BackgroundImageFix"/>
<feBlend mode="normal" in="SourceGraphic" in2="BackgroundImageFix" result="shape"/>
<feColorMatrix in="SourceAlpha" type="matrix" values="0 0 0 0 0 0 0 0 0 0 0 0 0 0 0 0 0 0 127 0" result="hardAlpha"/>
<feOffset dy="10"/>
<feComposite in2="hardAlpha" operator="arithmetic" k2="-1" k3="1"/>
<feColorMatrix type="matrix" values="0 0 0 0 0 0 0 0 0 0 0 0 0 0 0 0 0 0 0.05 0"/>
<feBlend mode="normal" in2="shape" result="effect1_innerShadow_2580_40"/>
</filter>
<filter id="filter4_i_2580_40" x="1.68408" y="20.0906" width="26.8065" height="21.4166" filterUnits="userSpaceOnUse" color-interpolation-filters="sRGB">
<feFlood flood-opacity="0" result="BackgroundImageFix"/>
<feBlend mode="normal" in="SourceGraphic" in2="BackgroundImageFix" result="shape"/>
<feColorMatrix in="SourceAlpha" type="matrix" values="0 0 0 0 0 0 0 0 0 0 0 0 0 0 0 0 0 0 127 0" result="hardAlpha"/>
<feOffset dy="10"/>
<feComposite in2="hardAlpha" operator="arithmetic" k2="-1" k3="1"/>
<feColorMatrix type="matrix" values="0 0 0 0 0 0 0 0 0 0 0 0 0 0 0 0 0 0 0.05 0"/>
<feBlend mode="normal" in2="shape" result="effect1_innerShadow_2580_40"/>
</filter>
</defs>
</svg>
