<svg width="31" height="30" viewBox="0 0 31 30" fill="none" xmlns="http://www.w3.org/2000/svg">
<path d="M15.7048 3.28354C18.4241 3.28977 21.0606 4.19758 23.1823 5.85823H20.5678C20.17 5.85823 19.7885 6.01253 19.5072 6.28719C19.2259 6.56185 19.0678 6.93436 19.0678 7.32279C19.0678 7.71121 19.2259 8.08373 19.5072 8.35839C19.7885 8.63305 20.17 8.78735 20.5678 8.78735H26.5678C26.9656 8.78735 27.3472 8.63305 27.6285 8.35839C27.9098 8.08373 28.0678 7.71121 28.0678 7.32279V1.46456C28.0678 1.07613 27.9098 0.703617 27.6285 0.428959C27.3472 0.154301 26.9656 0 26.5678 0C26.17 0 25.7885 0.154301 25.5072 0.428959C25.2259 0.703617 25.0678 1.07613 25.0678 1.46456V3.58524C22.8658 1.85496 20.2072 0.768515 17.3994 0.45151C14.5916 0.134505 11.7492 0.599887 9.20085 1.79385C6.65253 2.98781 4.50234 4.8616 2.99889 7.19857C1.49543 9.53553 0.700102 12.2402 0.704855 15C0.704855 15.3884 0.86289 15.7609 1.14419 16.0356C1.4255 16.3103 1.80703 16.4646 2.20485 16.4646C2.60268 16.4646 2.98421 16.3103 3.26551 16.0356C3.54682 15.7609 3.70485 15.3884 3.70485 15C3.70842 11.8937 4.97385 8.91557 7.22351 6.71906C9.47317 4.52256 12.5233 3.28703 15.7048 3.28354ZM29.2048 13.5354C28.807 13.5354 28.4255 13.6897 28.1442 13.9644C27.8629 14.2391 27.7048 14.6116 27.7048 15C27.7088 17.2065 27.0735 19.3691 25.8722 21.2381C24.6708 23.107 22.9525 24.606 20.9157 25.562C18.879 26.518 16.6067 26.8919 14.3615 26.6406C12.1163 26.3893 9.98973 25.523 8.22734 24.1418H10.8403C11.2382 24.1418 11.6197 23.9875 11.901 23.7128C12.1823 23.4382 12.3403 23.0656 12.3403 22.6772C12.3403 22.2888 12.1823 21.9163 11.901 21.6416C11.6197 21.367 11.2382 21.2127 10.8403 21.2127H4.84035C4.44253 21.2127 4.061 21.367 3.77969 21.6416C3.49839 21.9163 3.34035 22.2888 3.34035 22.6772V28.5354C3.34035 28.9239 3.49839 29.2964 3.77969 29.571C4.061 29.8457 4.44253 30 4.84035 30C5.23817 30 5.6197 29.8457 5.90101 29.571C6.18231 29.2964 6.34035 28.9239 6.34035 28.5354V26.4148C8.54251 28.1449 11.2012 29.2312 14.009 29.5481C16.8169 29.865 19.6593 29.3997 22.2076 28.2057C24.756 27.0118 26.9063 25.1381 28.4099 22.8013C29.9136 20.4644 30.7092 17.7598 30.7048 15C30.7048 14.6116 30.5468 14.2391 30.2655 13.9644C29.9842 13.6897 29.6026 13.5354 29.2048 13.5354Z" fill="#8936FF"/>
</svg>
