<svg width="34" height="30" viewBox="0 0 34 30" fill="none" xmlns="http://www.w3.org/2000/svg">
<path d="M27.3341 29.9146C26.1245 30.7128 18.3631 25.6531 16.8767 25.642C15.3902 25.6309 7.54143 30.5743 6.34593 29.7581C5.15043 28.942 7.96099 20.5595 7.51309 19.2501C7.06519 17.9407 -0.449513 12.5725 0.0212138 11.2699C0.492044 9.96735 9.99043 9.84637 11.2 9.04818C12.4096 8.25008 15.6141 -0.0110137 17.1007 1.10247e-05C18.5871 0.0111317 21.6468 8.31891 22.8423 9.13503C24.0378 9.95106 33.533 10.2137 33.981 11.5231C34.4289 12.8324 26.8215 18.088 26.3507 19.3905C25.8799 20.6931 28.5438 29.1164 27.3341 29.9146Z" fill="url(#paint0_linear_55_494)"/>
<defs>
<linearGradient id="paint0_linear_55_494" x1="15.4649" y1="-0.608108" x2="25.6797" y2="27.512" gradientUnits="userSpaceOnUse">
<stop stop-color="#E9A904"/>
<stop offset="1" stop-color="#FFC805"/>
</linearGradient>
</defs>
</svg>
