<svg width="47" height="46" viewBox="0 0 47 46" fill="none" xmlns="http://www.w3.org/2000/svg">
<path d="M9.44625 45.8691C11.0828 47.093 21.5835 39.3347 23.5946 39.3177C25.6057 39.3008 36.2246 46.8805 37.8421 45.6291C39.4595 44.3778 35.657 31.5245 36.263 29.5168C36.8689 27.5091 47.0359 19.2778 46.399 17.2805C45.762 15.2833 32.9113 15.0978 31.2747 13.8739C29.6382 12.6501 25.3027 -0.0168877 23.2915 1.69045e-05C21.2805 0.0170685 17.1409 12.7557 15.5234 14.0071C13.906 15.2583 1.05959 15.6611 0.453468 17.6687C-0.152512 19.6764 10.1398 27.7349 10.7768 29.7322C11.4137 31.7294 7.80972 44.6452 9.44625 45.8691Z" fill="#EEEEEE"/>
</svg>
