<svg width="30" height="30" viewBox="0 0 30 30" fill="none" xmlns="http://www.w3.org/2000/svg">
<g clip-path="url(#clip0_55_506)">
<path d="M26.8792 15.0273C25.8597 14.8512 24.7804 16.4435 24.4683 18.5838C24.1563 20.7241 24.7299 22.6018 25.7494 22.7779C26.7689 22.954 27.8482 21.3617 28.1602 19.2215C28.4722 17.0812 27.8987 15.2033 26.8792 15.0273ZM5.07811 15.0134C6.10159 14.8366 7.1852 16.4351 7.49844 18.5838C7.81167 20.7325 7.23584 22.6176 6.2124 22.7943C5.18895 22.9711 4.10534 21.3726 3.79214 19.2239C3.47893 17.0753 4.05467 15.1901 5.07811 15.0134Z" fill="#FFCC9D"/>
<path d="M16.5337 29.5C22.3858 29.5 27.1298 23.7572 27.1298 16.6731C27.1298 9.589 22.3858 3.84619 16.5337 3.84619C10.6816 3.84619 5.9375 9.589 5.9375 16.6731C5.9375 23.7572 10.6816 29.5 16.5337 29.5Z" fill="#FFCC9D"/>
<path d="M17.0974 27.2693L17.0914 26.5714C19.994 26.551 22.2749 25.781 23.8705 24.2831C25.4538 22.6447 26.3379 20.5444 26.3621 18.3639L27.1299 18.3462C27.1216 20.7159 26.1581 23.0006 24.4216 24.7683C22.6775 26.4059 20.2136 27.2475 17.0974 27.2693Z" fill="black"/>
<path d="M17.0914 28.3846C18.3234 28.3846 19.3221 27.6355 19.3221 26.7115C19.3221 25.7875 18.3234 25.0385 17.0914 25.0385C15.8593 25.0385 14.8606 25.7875 14.8606 26.7115C14.8606 27.6355 15.8593 28.3846 17.0914 28.3846Z" fill="black"/>
<path d="M28.2306 12.068C28.0134 8.42025 26.7298 7.38752 25.9234 7.10092C25.7762 7.05128 25.6508 6.95306 25.5682 6.82275C25.4856 6.69244 25.451 6.538 25.47 6.38539C25.6095 5.43903 25.2023 3.50472 20.7703 1.36588C14.5131 -1.65366 9.78021 4.06263 7.45391 5.72823C5.12761 7.39382 3.36271 8.10769 3.76385 13.8184C4.06769 18.1452 5.38473 20.4231 6.00511 21.273C6.0924 21.3905 6.21657 21.4763 6.35828 21.5168C6.49998 21.5573 6.65126 21.5503 6.78854 21.497C6.87567 21.4633 6.95482 21.4122 7.02102 21.3468C7.08722 21.2815 7.13904 21.2033 7.17322 21.1172C7.2074 21.0311 7.22321 20.939 7.21964 20.8465C7.21608 20.7541 7.19322 20.6634 7.15251 20.5802C6.63617 19.4213 6.57206 18.1145 6.97255 16.9116C7.77473 14.2149 6.97255 13.4902 9.21872 12.068C11.4649 10.6458 20.9327 6.0733 22.4548 7.07654C22.9361 7.39382 25.4229 8.33475 25.4229 12.068C25.4229 15.1404 26.0709 18.3681 25.6752 21.0066C25.6561 21.1572 25.6945 21.3094 25.7828 21.4335C25.8712 21.5575 26.0031 21.6446 26.1529 21.6777C26.3027 21.7107 26.4596 21.6874 26.5929 21.6122C26.7262 21.537 26.8264 21.4153 26.8739 21.271C27.876 18.3075 28.3355 15.1911 28.2306 12.068Z" fill="black"/>
</g>
<defs>
<clipPath id="clip0_55_506">
<rect width="29" height="29" fill="white" transform="translate(0.704834 0.5)"/>
</clipPath>
</defs>
</svg>
