<svg width="18" height="15" viewBox="0 0 18 15" fill="none" xmlns="http://www.w3.org/2000/svg">
<path d="M13.1164 4.73268C13.6684 4.18068 14.2164 2.89268 11.9164 4.45668C9.76782 5.93536 7.60471 7.39276 5.42736 8.82868C5.0958 8.97861 4.73735 9.05997 4.37356 9.06787C4.00976 9.07578 3.64812 9.01007 3.31036 8.87468C1.93036 8.46068 0.319359 7.90868 0.319359 7.90868C0.319359 7.90868 -0.780641 7.21768 1.10236 6.48168C1.10236 6.48168 9.06336 3.21468 11.8244 2.06368C12.8824 1.60368 16.4714 0.131682 16.4714 0.131682C16.4714 0.131682 18.1284 -0.513318 17.9904 1.05168C17.9444 1.69568 17.5764 3.95168 17.2084 6.38968C16.6554 9.84068 16.0574 13.6147 16.0574 13.6147C16.0574 13.6147 15.9654 14.6727 15.1834 14.8567C14.3462 14.8425 13.5374 14.5513 12.8834 14.0287C12.6994 13.8907 9.43236 11.8197 8.23536 10.8077C8.1136 10.7252 8.01468 10.6133 7.9478 10.4823C7.88092 10.3513 7.84825 10.2055 7.85284 10.0585C7.85743 9.91152 7.89913 9.76807 7.97405 9.64151C8.04897 9.51496 8.15469 9.40941 8.28136 9.33468C9.92311 7.8326 11.5351 6.29831 13.1164 4.73268Z" fill="#0094FF"/>
</svg>
